<svg width="162" height="163" viewBox="0 0 162 163" fill="none" xmlns="http://www.w3.org/2000/svg">
<g filter="url(#filter0_d)">
<path d="M84.1926 0.171002L57.9652 26.3948L24 60.3564L24.0784 113.926L77.6482 114.005L103.883 87.7701L137.841 53.8121L138.001 0L84.1926 0.171002ZM86.0878 4.72392L130.192 4.59211L105.219 29.5655H61.2499L86.0878 4.72392ZM53.398 37.4137V81.3825L28.6313 106.149L28.5636 62.2482L53.398 37.4137ZM75.7601 109.441L31.859 109.38L56.6257 84.6137H100.594L75.7636 109.445L75.7601 109.441ZM57.9616 80.0501V34.1255H103.883V80.043H57.9616V80.0501ZM108.443 76.7619V32.7896L133.416 7.8162L133.281 51.9204L108.443 76.7619Z" fill="url(#paint0_linear)"/>
</g>
<defs>
<filter id="filter0_d" x="0" y="0" width="162.001" height="162.005" filterUnits="userSpaceOnUse" color-interpolation-filters="sRGB">
<feFlood flood-opacity="0" result="BackgroundImageFix"/>
<feColorMatrix in="SourceAlpha" type="matrix" values="0 0 0 0 0 0 0 0 0 0 0 0 0 0 0 0 0 0 127 0"/>
<feOffset dy="24"/>
<feGaussianBlur stdDeviation="12"/>
<feColorMatrix type="matrix" values="0 0 0 0 0 0 0 0 0 0 0 0 0 0 0 0 0 0 0.15 0"/>
<feBlend mode="normal" in2="BackgroundImageFix" result="effect1_dropShadow"/>
<feBlend mode="normal" in="SourceGraphic" in2="effect1_dropShadow" result="shape"/>
</filter>
<linearGradient id="paint0_linear" x1="24" y1="0.00356288" x2="138.952" y2="0.00356288" gradientUnits="userSpaceOnUse">
<stop stop-color="#3333FF"/>
<stop offset="1" stop-color="#8080FF"/>
</linearGradient>
</defs>
</svg>
