<svg width="116" height="115" viewBox="0 0 116 115" fill="none" xmlns="http://www.w3.org/2000/svg">
<g opacity="0.7">
<path d="M87.0046 81.812C85.2025 83.7391 83.2889 85.5564 81.431 87.4345C80.4177 88.4614 79.4043 89.4748 78.374 90.4916C78.2763 90.6203 78.1519 90.7264 78.0092 90.8023C77.9648 90.7752 77.9282 90.737 77.9027 90.6917C77.8773 90.6463 77.8639 90.5951 77.8639 90.5431C77.8639 90.491 77.8773 90.4399 77.9027 90.3945C77.9282 90.3491 77.9648 90.311 78.0092 90.2838C78.7 89.7349 78.7169 88.9884 78.7101 88.1963C78.6881 85.8216 78.7 83.4452 78.7101 81.0705C78.7101 80.7749 78.6848 80.4726 78.8587 80.2058C79.1391 80.0132 79.46 80.096 79.764 80.0825C80.3974 80.0554 80.5528 79.9136 80.5697 79.2853C80.5697 79.1518 80.5697 79.0167 80.5697 78.8816V35.5934C80.5697 34.4314 80.5291 34.3925 79.3604 34.3908C79.0091 34.3908 78.6578 34.3908 78.3065 34.3908C78.1376 34.3908 77.9518 34.4043 77.7998 34.2743C77.6749 34.0484 77.6224 33.7896 77.6494 33.5328C77.6494 32.6039 77.6494 31.675 77.6494 30.7427C77.6494 30.0029 77.5109 29.8644 76.7745 29.8627C73.8065 29.8627 70.8401 29.8627 67.8754 29.8627C67.6592 29.8627 67.443 29.8526 67.2285 29.8475C63.2088 29.8723 59.1902 29.8723 55.1727 29.8475C51.663 29.8689 48.1544 29.8689 44.647 29.8475C42.6287 29.8796 40.6121 29.8593 38.5955 29.8593C38.4472 29.8716 38.2979 29.8544 38.1563 29.8087C37.9672 29.7276 37.9097 29.6009 38.1023 29.4506C38.6375 29.3957 39.1755 29.372 39.7135 29.3797C53.4888 29.3797 67.2645 29.3847 81.0409 29.3949C81.7874 29.3949 82.3465 29.1905 82.8599 28.6433C83.8733 27.5742 84.9255 26.5507 85.9743 25.5204C86.1331 25.365 86.2665 25.1505 86.5385 25.1725C86.7749 25.1995 86.8459 25.3599 86.8627 25.5677C86.8864 25.8632 86.883 26.1605 86.8796 26.4578C86.861 28.0488 86.9252 29.6398 86.8442 31.2308C86.8512 31.2979 86.8625 31.3644 86.878 31.4301C86.905 31.6682 86.7226 31.7915 86.5858 31.9368C85.4761 33.0751 85.5859 32.7813 85.5859 34.455C85.5859 48.0974 85.5859 61.7397 85.5859 75.3821C85.5859 75.5307 85.5859 75.6793 85.5859 75.828C85.5859 75.9766 85.5487 76.1556 85.7227 76.2164C85.8967 76.2772 85.9896 76.1201 86.0926 76.0188C86.557 75.5679 87.0029 75.0983 87.4741 74.6541C87.616 74.519 87.7461 74.3366 87.9927 74.416C88.1717 74.5274 88.1616 74.7132 88.1616 74.8855C88.1785 76.6505 88.1734 78.4171 88.1616 80.1821C88.1562 80.3107 88.1249 80.4368 88.0694 80.5529C88.014 80.669 87.9356 80.7727 87.839 80.8577C87.5552 81.1566 87.2174 81.4303 87.0046 81.812Z" fill="#969696"/>
<path d="M28.3722 32.8182C28.4701 32.7084 28.563 32.5935 28.6677 32.4905L35.1719 25.9863C35.2767 25.8833 35.3898 25.7887 35.4996 25.6907C35.731 25.5995 35.785 25.7583 35.8188 25.9255C35.8483 26.112 35.8585 26.301 35.8492 26.4896C35.8492 28.7956 35.8492 31.1005 35.8492 33.4042C35.8772 33.6866 35.8348 33.9715 35.7259 34.2335C35.6972 34.2622 35.6769 34.3078 35.6364 34.3146C35.0318 34.4244 34.9608 34.8449 34.9608 35.3685C34.9676 49.9454 34.9676 64.5229 34.9608 79.1009C34.9608 79.2225 34.9608 79.3441 34.9693 79.4657C35.0081 79.8795 35.1652 80.0434 35.5824 80.0704C36.0266 80.0974 36.4725 80.0704 36.9183 80.0856C37.116 80.094 37.3288 80.0586 37.4926 80.2207C37.5999 80.4246 37.6473 80.6547 37.6294 80.8845C37.6294 81.9891 37.6294 83.0936 37.6294 84.1982C37.6476 84.4141 37.6061 84.6309 37.5095 84.8248C37.3609 84.9937 37.1616 84.938 36.9808 84.9346C35.8722 84.894 34.7622 84.9574 33.6654 85.1238C33.412 85.1761 33.2499 85.3586 33.0776 85.5291C31.7614 86.8353 30.4485 88.1453 29.139 89.4594C29.014 89.5826 28.8941 89.7093 28.7589 89.8191C28.59 89.9576 28.4211 89.988 28.2793 89.7752C28.1747 89.5405 28.1339 89.2824 28.161 89.027C28.161 87.3752 28.161 85.7234 28.161 84.0716C28.1763 83.9123 28.1525 83.7517 28.0918 83.6037C28.0715 83.3841 28.2354 83.2659 28.3604 83.1308C28.7218 82.7457 29.095 82.3758 29.4734 82.0093C29.6301 81.8701 29.7533 81.6971 29.8337 81.5035C29.9142 81.3099 29.9498 81.1006 29.9378 80.8912C29.9378 80.7223 29.9378 80.5399 29.9378 80.3643C29.9378 66.5722 29.9378 52.7789 29.9378 38.9846C29.9378 38.7532 30.0662 38.4137 29.8281 38.309C29.5899 38.2043 29.4616 38.5607 29.2724 38.6975C29.0528 38.8562 28.9245 39.1653 28.5799 39.118C28.4986 39.0828 28.4311 39.022 28.3875 38.9449C28.3439 38.8677 28.3267 38.7785 28.3384 38.6907C28.3316 36.7366 28.2691 34.7774 28.3722 32.8182Z" fill="#7E7E7E"/>
<path d="M109.443 0.169009C111.17 0.169009 112.898 0.169009 114.626 0.153809C114.938 0.153809 115.06 0.263591 115.055 0.577738C115.04 1.51005 115.041 2.4356 115.041 3.37129C115.041 9.59344 115.068 15.8173 115.014 22.0378C114.932 31.4183 114.982 40.7971 114.93 50.1776C114.93 51.3363 114.901 52.4966 114.891 53.6569C114.895 53.7574 114.877 53.8574 114.839 53.9506C114.801 54.0437 114.744 54.1278 114.672 54.1974C112.398 56.4673 110.126 58.7384 107.855 61.0107C107.794 61.0626 107.729 61.1095 107.661 61.1508C107.461 61.0377 107.468 60.8367 107.468 60.6442C107.468 58.8015 107.426 56.9605 107.493 55.1179C107.491 55.0247 107.481 54.932 107.461 54.8409C107.438 54.6196 107.605 54.5031 107.733 54.3696C108.333 53.7481 108.938 53.1299 109.564 52.5371C109.757 52.3598 109.909 52.1422 110.009 51.8996C110.108 51.657 110.153 51.3955 110.14 51.1336C110.13 44.143 110.064 37.1489 110.154 30.1583C110.241 23.2082 110.169 16.2581 110.214 9.30801C110.22 9.19999 110.22 9.09174 110.214 8.98373C110.201 8.83003 110.28 8.62904 110.103 8.54459C109.966 8.47873 109.87 8.64256 109.765 8.71349C109.716 8.76056 109.653 8.79034 109.586 8.79827C109.518 8.8062 109.45 8.79185 109.392 8.75741C109.338 8.69657 109.298 8.62465 109.275 8.54674C109.252 8.46882 109.246 8.3868 109.258 8.30645C109.24 5.7578 109.243 3.21084 109.258 0.663875C109.247 0.572645 109.257 0.479934 109.289 0.393727C109.321 0.307519 109.374 0.2304 109.443 0.169009Z" fill="#A4A4A4"/>
<path d="M7.21778 114.289C5.19102 114.289 3.16709 114.294 1.14596 114.304C0.924701 114.304 0.808163 114.232 0.830119 114.002C0.830119 113.881 0.830119 113.759 0.830119 113.637C0.830119 96.0529 0.827296 78.468 0.821666 60.8824C0.813481 60.6976 0.84617 60.5132 0.917403 60.3424C0.988635 60.1716 1.09666 60.0187 1.23377 59.8944C3.00888 58.1413 4.7671 56.3662 6.53038 54.6012C6.64523 54.4863 6.77022 54.3833 6.88844 54.2752C7.06747 54.2634 7.11645 54.385 7.14516 54.5252C7.16287 54.6181 7.17136 54.7126 7.1705 54.8072C7.18232 56.7377 7.1705 58.6682 7.18232 60.597C7.15868 60.7744 7.01342 60.8723 6.90364 60.9821C6.49322 61.3756 6.14529 61.8266 5.75007 62.2302C5.63477 62.3447 5.544 62.4815 5.48331 62.6322C5.42262 62.7829 5.39328 62.9444 5.39708 63.1068C5.42411 64.5762 5.31939 66.0473 5.46295 67.5167C5.4811 67.7978 5.48505 68.0797 5.47478 68.3612V104.885C5.47478 105.054 5.47478 105.236 5.47478 105.41C5.47478 105.517 5.47477 105.638 5.59638 105.691C5.71798 105.743 5.80243 105.66 5.88181 105.588C6.14023 105.351 6.37668 105.091 6.63678 104.855C6.76514 104.74 6.88506 104.596 7.09111 104.649C7.1776 104.668 7.25482 104.716 7.30962 104.786C7.36443 104.855 7.39345 104.942 7.39175 105.03C7.40357 105.164 7.41202 105.299 7.41202 105.432C7.41202 108.152 7.41202 110.87 7.41202 113.588C7.41371 113.837 7.46606 114.105 7.21778 114.289Z" fill="#717171"/>
<path d="M33.3817 84.8974C33.5527 84.817 33.7437 84.7888 33.9306 84.8164H37.4302C37.6244 84.5884 37.8929 84.6255 38.1429 84.6255C40.0818 84.6255 42.0275 84.6255 43.958 84.6255C44.914 84.6255 45.8682 84.6086 46.8293 84.639C50.2275 84.6165 53.6257 84.6165 57.0239 84.639C60.0843 84.6036 63.143 84.639 66.2034 84.6238C67.2168 84.6238 67.2877 84.5495 67.2877 83.548C67.2877 82.6731 67.2877 81.7965 67.2877 80.9199C67.2667 80.6771 67.3172 80.4335 67.433 80.219C67.5884 80.0738 67.786 80.094 67.9701 80.094C71.4257 80.0839 74.8813 80.0839 78.3369 80.094C78.5413 80.094 78.7845 80.0467 78.9061 80.2984C78.9061 83.2355 78.9061 86.1709 78.9146 89.1064C78.9257 89.2796 78.8967 89.453 78.8299 89.6133C78.7631 89.7735 78.6603 89.9162 78.5295 90.0302C78.2998 90.2397 77.9958 90.4238 78.0228 90.8072C76.0315 92.9251 73.9271 94.9333 71.8851 96.9989C70.892 98.0123 69.8786 98.9885 68.8737 99.9833C68.6592 99.9141 68.6592 99.7468 68.6609 99.5594C68.6777 97.9447 68.6609 96.3284 68.6609 94.7137C68.6609 94.4199 68.6794 94.1192 68.5376 93.8439C68.4683 93.5619 68.6946 93.4284 68.8483 93.2747C70.0897 92.0148 71.3446 90.77 72.5945 89.5185L76.3744 85.7386C76.4639 85.6558 76.5485 85.5678 76.6277 85.4751C76.8067 85.2471 76.7679 85.1373 76.4842 85.1103C76.3221 85.101 76.1597 85.101 75.9977 85.1103H34.6079C34.3394 85.1103 34.0691 85.1103 33.7989 85.1001C33.6367 85.0782 33.4695 85.0714 33.3817 84.8974Z" fill="#929292"/>
<path d="M7.21791 114.289C7.21791 111.315 7.21791 108.342 7.21791 105.368C7.21791 105.143 7.26858 104.9 7.04902 104.738C6.95781 104.591 7.03889 104.483 7.13009 104.378C7.2213 104.273 7.29898 104.199 7.37837 104.113C10.7079 100.788 14.0357 97.4624 17.3618 94.1362C17.5578 93.942 17.7317 93.6295 18.1033 93.8424C18.1641 93.8872 18.2119 93.9475 18.2416 94.017C18.2712 94.0865 18.2818 94.1626 18.2722 94.2376C18.284 96.1444 18.3279 98.0546 18.2502 99.9598C18.2935 100.044 18.306 100.141 18.2857 100.233C18.2653 100.326 18.2134 100.408 18.1388 100.466C17.9699 100.627 17.8196 100.794 17.6574 100.955C14.9472 103.657 12.2448 106.364 9.55037 109.075C9.44566 109.18 9.21259 109.244 9.33588 109.481C9.66946 109.595 10.0202 109.652 10.3729 109.649C12.2319 109.649 14.0898 109.649 15.9465 109.649C16.5022 109.649 16.5748 109.715 16.5815 110.278C16.5951 111.423 16.5917 112.568 16.5815 113.715C16.5815 113.929 16.5815 114.152 16.3856 114.303C14.0211 114.303 11.6565 114.306 9.29197 114.314C8.58936 114.309 7.90363 114.296 7.21791 114.289Z" fill="#757575"/>
<path d="M35.65 34.1867C35.65 31.5384 35.65 28.8923 35.65 26.2485C35.65 26.056 35.7176 25.8347 35.5031 25.6962C35.5639 25.6236 35.6196 25.5476 35.6855 25.4817C38.1964 22.9674 40.7096 20.4542 43.225 17.9422C43.2909 17.8763 43.3686 17.8206 43.4395 17.7598C43.6743 17.7361 43.7401 17.8881 43.7672 18.0773C43.7885 18.2639 43.7964 18.4519 43.7908 18.6397C43.7908 19.9689 43.7908 21.2981 43.7908 22.6274C43.8033 23.056 43.7852 23.4849 43.7368 23.911C43.7593 24.0037 43.7544 24.101 43.7226 24.191C43.6908 24.2809 43.6335 24.3597 43.5577 24.4177C41.9521 26.0357 40.3397 27.6481 38.7205 29.2549C38.6538 29.3388 38.5675 29.4051 38.4691 29.4478C38.3707 29.4905 38.2633 29.5084 38.1564 29.4998C38.099 29.5538 38.0669 29.6248 38.1682 29.6467C38.2877 29.6662 38.4088 29.673 38.5297 29.667L44.6404 29.6771C44.7101 29.7299 44.7646 29.8002 44.7984 29.8809C44.8322 29.9616 44.8441 30.0498 44.8329 30.1365C44.8515 31.3424 44.8481 32.5484 44.8329 33.7526C44.8357 33.9296 44.792 34.1043 44.7062 34.2593C44.5576 34.4147 44.3684 34.3961 44.1759 34.3978C41.513 34.409 38.8489 34.409 36.1837 34.3978C35.9895 34.3826 35.7682 34.413 35.65 34.1867Z" fill="#828282"/>
<path d="M109.443 0.169129V8.77442C109.569 9.07167 109.306 9.18653 109.159 9.33347C107.499 11.0112 105.833 12.681 104.16 14.3429C103.484 15.0101 102.829 15.6823 102.153 16.3427C101.984 16.5116 101.795 16.6467 101.562 16.4221C101.427 16.2008 101.462 15.9525 101.462 15.7127C101.462 14.071 101.462 12.4293 101.462 10.7877C101.488 10.6414 101.474 10.491 101.422 10.3519C101.322 10.0682 101.55 9.93305 101.702 9.77935C103.161 8.3015 104.638 6.84224 106.093 5.36777C106.244 5.21576 106.555 5.08402 106.445 4.84081C106.354 4.63814 106.051 4.7361 105.845 4.74285C101.386 4.91175 96.9257 4.77325 92.4651 4.81886C92.2499 4.82758 92.0344 4.82194 91.8199 4.80196C91.6713 4.78339 91.5159 4.76312 91.5109 4.55707C91.619 4.3223 91.8487 4.3527 92.0327 4.34763C92.7083 4.33243 93.367 4.32737 94.0342 4.34763C96.1758 4.31217 98.3174 4.34763 100.452 4.33074C100.621 4.33074 100.802 4.33074 100.978 4.33074C101.515 4.30879 101.68 4.16185 101.69 3.62138C101.704 2.8529 101.69 2.08611 101.69 1.31763C101.69 1.07442 101.69 0.832894 101.702 0.589683C101.698 0.508867 101.713 0.428218 101.746 0.354272C101.779 0.280326 101.829 0.215163 101.891 0.164062L109.443 0.169129Z" fill="#A1A1A1"/>
<path d="M107.575 54.8206C107.65 55.0373 107.679 55.2674 107.661 55.4961V61.1542C107.556 61.2775 107.46 61.4075 107.347 61.5224C104.081 64.7877 100.812 68.0564 97.5404 71.3285C97.4661 71.4045 97.3715 71.4721 97.2989 71.543C97.103 71.5008 97.0489 71.3657 97.0574 71.1833C97.1384 69.246 97.0574 67.3088 97.0996 65.3732C97.0662 65.2844 97.0624 65.1871 97.0885 65.0959C97.1147 65.0047 97.1695 64.9242 97.2448 64.8665C97.613 64.4882 97.988 64.12 98.3596 63.7467C101.223 60.8823 104.088 58.02 106.955 55.16C107.119 54.9996 107.242 54.7023 107.575 54.8206Z" fill="#A0A0A0"/>
<path d="M43.5862 24.0511C43.5862 22.1561 43.5862 20.2605 43.5862 18.3644C43.5862 18.1482 43.5862 17.9303 43.4342 17.7547C43.5035 17.6736 43.5693 17.5858 43.6436 17.5098L53.3974 7.75936C53.4734 7.68336 53.5663 7.61749 53.6406 7.54824C53.8788 7.51615 53.943 7.66816 53.9784 7.85901C53.9984 8.04578 54.0058 8.23368 54.0004 8.42144C54.0004 9.91336 54.0004 11.4042 54.0004 12.8938C54.0004 13.1353 53.9818 13.3769 53.9632 13.6167C54.0049 13.6945 54.0186 13.7843 54.002 13.871C53.9854 13.9577 53.9395 14.0361 53.872 14.093C53.8045 14.1572 53.7437 14.2315 53.6778 14.2974C50.5127 17.4625 47.3453 20.6259 44.1757 23.7877C44.022 23.9346 43.902 24.2403 43.5862 24.0511Z" fill="#868686"/>
<path d="M53.8722 13.7635C53.8018 13.5732 53.7753 13.3694 53.7945 13.1673C53.7945 11.4784 53.7945 9.79279 53.7945 8.11057C53.7945 7.91128 53.83 7.69847 53.6442 7.54815C53.7151 7.46539 53.7793 7.37925 53.8536 7.30325C56.1483 5.0085 58.4431 2.71376 60.7378 0.419017C60.7998 0.340094 60.8784 0.275745 60.968 0.230511C61.0576 0.185276 61.156 0.160258 61.2563 0.157227C62.2528 0.169049 63.2493 0.16905 64.2458 0.174117C64.3049 0.218648 64.3525 0.276703 64.3845 0.343413C64.4165 0.410124 64.4321 0.483544 64.4299 0.557514C64.4536 1.81917 64.462 3.08083 64.4299 4.3408C64.4241 4.42104 64.4071 4.50007 64.3792 4.57556C64.3775 4.62658 64.3642 4.67653 64.3404 4.72167C64.3166 4.76682 64.2829 4.80598 64.2417 4.83621C64.2006 4.86644 64.1532 4.88696 64.103 4.89623C64.0528 4.9055 64.0011 4.90327 63.9519 4.88971C63.2324 4.78331 62.7832 5.17684 62.3187 5.64637C59.819 8.17982 57.2974 10.6778 54.7859 13.1927C54.617 13.3616 54.4481 13.5406 54.264 13.6994C54.1441 13.7956 54.0293 13.9054 53.8722 13.7635Z" fill="#8B8B8B"/>
<path d="M59.8697 108.947C58.2804 110.654 56.5779 112.25 54.9599 113.929C54.8181 114.086 54.6433 114.208 54.4482 114.289C54.253 114.369 54.0424 114.405 53.8316 114.394C48.3408 114.375 42.8533 114.378 37.3608 114.375L23.643 114.36C23.4551 114.383 23.2644 114.365 23.084 114.307C23.2123 114.066 23.4488 114.112 23.6532 114.108C24.6547 114.098 25.6563 114.088 26.6562 114.108C30.6202 114.088 34.5842 114.081 38.5465 114.108C41.7386 114.071 44.9325 114.108 48.1246 114.091C49.1532 114.091 49.2191 114.024 49.2191 112.988C49.2191 112.152 49.2191 111.318 49.2191 110.482C49.2028 110.267 49.2251 110.051 49.2849 109.844C49.3407 109.582 49.5484 109.568 49.7562 109.565C50.4317 109.548 51.1073 109.529 51.7829 109.565C52.0303 109.58 52.2778 109.538 52.5062 109.442C52.7347 109.345 52.938 109.198 53.1003 109.011C55.0899 106.996 57.0908 104.993 59.1029 103C59.287 102.816 59.4525 102.561 59.7785 102.689C60.0183 102.795 60.0504 103.012 60.0538 103.23C60.0718 104.935 60.0718 106.641 60.0538 108.345C60.0498 108.559 59.986 108.767 59.8697 108.947Z" fill="#898989"/>
<path d="M97.2059 65.1944C97.2715 65.4411 97.3011 65.6959 97.2938 65.951C97.2938 67.5252 97.2938 69.0993 97.2938 70.6802C97.2938 70.9723 97.1654 71.2645 97.2938 71.5567C97.1941 71.6648 97.0979 71.778 96.9948 71.8827C93.7858 75.0929 90.5768 78.3019 87.3677 81.5098C87.2686 81.6378 87.1437 81.7437 87.0012 81.8206C87.0181 81.4372 87.3035 81.2261 87.5501 81.0065C87.6971 80.879 87.8125 80.7191 87.8872 80.5395C87.9619 80.3598 87.994 80.1653 87.9808 79.9712C87.9622 78.1234 87.969 76.2774 87.9673 74.4314C87.8457 74.1949 88.0433 74.0817 88.1666 73.9551C88.7493 73.3555 89.3489 72.7728 89.94 72.1783C92.1604 69.9545 94.3848 67.7324 96.6131 65.5119C96.7719 65.3481 96.8918 65.0694 97.2059 65.1944Z" fill="#9A9A9A"/>
<path d="M59.8697 108.947C59.8697 107.104 59.8697 105.26 59.8697 103.416C59.8697 103.178 59.9052 102.909 59.613 102.794C59.5793 102.741 59.5662 102.677 59.5761 102.615C59.5861 102.553 59.6184 102.496 59.667 102.456C59.738 102.374 59.8106 102.288 59.8866 102.218C62.6025 99.4979 65.3211 96.7809 68.0426 94.0673C68.1896 93.9221 68.3112 93.6603 68.6067 93.7954C68.9023 93.9305 68.8618 94.1484 68.8618 94.3764C68.8618 96.1464 68.8562 97.9176 68.8449 99.6899C68.8449 99.7828 68.8601 99.8757 68.8669 99.9702C68.7588 100.088 68.6523 100.212 68.5392 100.327C65.7828 103.085 63.0241 105.844 60.2632 108.603C60.1578 108.744 60.0237 108.861 59.8697 108.947Z" fill="#8E8E8E"/>
<path d="M28.3721 32.8184C28.5545 32.9721 28.5208 33.1832 28.5208 33.3825C28.5208 35.0714 28.5208 36.7604 28.5208 38.4494C28.5009 38.6514 28.5274 38.8554 28.5985 39.0456C28.7674 39.2955 28.5478 39.4172 28.4177 39.5523C27.4939 40.4981 26.5514 41.427 25.6158 42.3627C24.1852 43.795 22.758 45.234 21.3156 46.6527C21.1467 46.8216 20.9441 47.1273 20.6721 46.7405C20.6342 46.555 20.6189 46.3656 20.6265 46.1764C20.6265 44.439 20.6265 42.6999 20.6265 40.9592C20.6268 40.8105 20.6381 40.662 20.6603 40.515C21.6737 39.4915 22.6871 38.4629 23.7123 37.4411C25.1625 35.9897 26.6162 34.5422 28.0732 33.0987C28.1661 32.994 28.2708 32.9079 28.3721 32.8184Z" fill="#7B7B7B"/>
<path d="M74.6937 0.168785C76.7103 0.168785 78.7286 0.155273 80.7452 0.155273C82.3193 0.155273 83.8918 0.163719 85.4743 0.168785C85.5466 0.230203 85.6022 0.308789 85.6362 0.397325C85.6701 0.485861 85.6812 0.581508 85.6686 0.675476C85.6804 1.84086 85.6821 3.00625 85.6686 4.17164C85.6712 4.34826 85.6287 4.52264 85.5453 4.67833C85.3308 4.87762 85.0622 4.82189 84.8123 4.82358C82.7348 4.83371 80.6557 4.7746 78.58 4.84047C74.1431 4.98234 69.7061 4.8658 65.2692 4.90465C64.9838 4.90465 64.6696 4.98403 64.4247 4.74757C64.3673 4.50943 64.5396 4.47903 64.7017 4.45369C64.9157 4.42749 65.1315 4.41902 65.3469 4.42836H73.3036C73.4506 4.42836 73.5992 4.42836 73.7478 4.42836C74.3305 4.40978 74.4944 4.25946 74.5028 3.67508C74.5146 2.72081 74.5028 1.76486 74.5028 0.803836C74.4994 0.575826 74.4775 0.337682 74.6937 0.168785Z" fill="#959595"/>
<path d="M26.6545 114.287L23.084 114.308L16.3721 114.298C16.3721 112.946 16.3619 111.595 16.3721 110.256C16.3721 109.888 16.2454 109.761 15.8772 109.763C13.5735 109.773 11.2697 109.773 8.96595 109.763C8.86462 109.763 8.62816 109.9 8.65856 109.604C9.35442 109.435 10.0638 109.489 10.7681 109.487C13.3443 109.487 15.9194 109.487 18.4934 109.487C21.0269 109.487 23.5603 109.612 26.0938 109.574C26.3032 109.574 26.5295 109.538 26.7085 109.704C26.8185 109.905 26.8672 110.135 26.8487 110.364C26.8487 111.465 26.8572 112.56 26.8487 113.668C26.8521 113.889 26.8825 114.132 26.6545 114.287Z" fill="#7A7A7A"/>
<path d="M20.6602 40.5049C20.8409 40.689 20.8291 40.9221 20.8291 41.1518C20.8291 43.0378 20.8291 44.9249 20.8291 46.8132C20.998 47.0631 20.7767 47.1847 20.6467 47.3199C19.7617 48.2285 18.8581 49.1186 17.9612 50.0222C16.7013 51.2822 15.4464 52.5455 14.1779 53.7971C13.9955 53.9778 13.8114 54.1973 13.5294 53.9356C13.4487 53.8092 13.4135 53.659 13.4297 53.5099C13.4145 51.6605 13.4297 49.8111 13.4297 47.9634C13.4297 47.8806 13.4551 47.8029 13.4601 47.7218C14.4859 46.6882 15.5122 45.6545 16.5391 44.6209C17.9049 43.2483 19.2786 41.8763 20.6602 40.5049Z" fill="#777777"/>
<path d="M74.6938 0.168785C74.6938 1.45127 74.6938 2.73376 74.6938 4.01625C74.6938 4.61246 74.6938 4.61752 74.0757 4.61752H65.0059C64.8038 4.59394 64.5989 4.61587 64.4063 4.68171C64.398 4.69686 64.3858 4.7095 64.371 4.7183C64.3561 4.72711 64.3391 4.73175 64.3219 4.73175C64.3046 4.73175 64.2877 4.72711 64.2728 4.7183C64.2579 4.7095 64.2457 4.69686 64.2374 4.68171V0.168785C66.2 0.168785 68.1643 0.155273 70.1269 0.155273C71.6537 0.168785 73.1738 0.168785 74.6938 0.168785Z" fill="#909090"/>
<path d="M13.4502 47.7148C13.6292 47.8973 13.6191 48.1303 13.6191 48.36V53.334C13.5962 53.5363 13.6234 53.7411 13.6985 53.9302C13.8235 54.1887 13.6343 54.3288 13.4857 54.4808C12.1531 55.832 10.8036 57.1612 9.46593 58.5073C8.82075 59.1559 8.17726 59.8062 7.51856 60.4412C7.40033 60.5561 7.27873 60.779 7.05748 60.5713C6.88858 58.6729 7.022 56.7694 6.9764 54.8676C6.9764 54.6666 7.0068 54.4606 6.89026 54.2748C8.08436 53.0739 9.27677 51.868 10.4743 50.6705C11.4606 49.6808 12.4571 48.6995 13.4502 47.7148Z" fill="#747474"/>
<path d="M85.4661 4.61093V0.168945H94.0528C94.125 0.230343 94.1805 0.308984 94.2141 0.397565C94.2478 0.486146 94.2585 0.581797 94.2453 0.675635C94.2588 1.79373 94.2588 2.91183 94.2453 4.02992C94.2586 4.12392 94.2478 4.21977 94.2138 4.30841C94.1798 4.39706 94.1238 4.4756 94.0511 4.53661H91.972C91.825 4.52515 91.6773 4.54649 91.5396 4.59911C91.4585 4.80854 91.2677 4.80347 91.0971 4.80685C89.3687 4.82712 87.6409 4.82712 85.9136 4.80685C85.7431 4.81192 85.5522 4.81698 85.4661 4.61093Z" fill="#999999"/>
<path d="M94.051 4.53981C94.051 3.08392 94.051 1.62859 94.051 0.173828H101.908C101.908 1.45632 101.908 2.73768 101.908 4.01792C101.908 4.51278 101.878 4.5415 101.374 4.5415C98.9333 4.54375 96.4921 4.54319 94.051 4.53981Z" fill="#9D9D9D"/>
<path d="M67.2403 34.1864C64.3871 34.1864 61.5344 34.1909 58.6823 34.1999C57.5118 34.1999 56.3414 34.1915 55.1709 34.1864C55.099 34.1248 55.0437 34.0461 55.01 33.9576C54.9764 33.8691 54.9655 33.7735 54.9784 33.6797C54.9649 32.5109 54.9649 31.3416 54.9784 30.1717C54.9784 29.9826 54.9919 29.7917 55.1676 29.665H67.2369C67.421 29.7866 67.4311 29.9775 67.4328 30.1717C67.448 31.3422 67.4463 32.5126 67.4328 33.6831C67.4453 33.7764 67.4342 33.8713 67.4005 33.9592C67.3669 34.0471 67.3118 34.1252 67.2403 34.1864Z" fill="#8C8C8C"/>
<path d="M67.2404 34.1862C67.2404 32.6797 67.2404 31.1726 67.2404 29.6649C70.6262 29.6649 74.0131 29.6604 77.4012 29.6514C77.7643 29.6514 77.8623 29.8017 77.8606 30.1378C77.8488 31.489 77.8606 32.8401 77.8606 34.1913L67.2404 34.1862Z" fill="#919191"/>
<path d="M55.1677 29.6685C55.1677 31.1728 55.1677 32.6788 55.1677 34.1864L47.0184 34.2016C46.2246 34.2016 45.4308 34.1915 44.637 34.1864C44.637 32.6799 44.637 31.1739 44.637 29.6685H55.1677Z" fill="#878787"/>
<path d="M86.5149 25.2772C88.1262 23.6558 89.7391 22.035 91.3538 20.4147C91.7608 20.006 92.178 19.6057 92.5901 19.202C92.7945 19.1936 92.8283 19.3405 92.8519 19.4925C92.8708 19.6398 92.8787 19.7883 92.8755 19.9367C92.8755 21.5131 92.8755 23.0894 92.8755 24.6658C92.8887 24.9354 92.8521 25.205 92.7675 25.4613C91.0492 27.1897 89.3315 28.9158 87.6144 30.6397C87.3408 30.9167 87.0554 31.1835 86.7699 31.4538C86.6894 31.2535 86.6575 31.037 86.677 30.8221C86.677 29.1551 86.677 27.4864 86.677 25.8177C86.6787 25.6285 86.7395 25.4073 86.5149 25.2772Z" fill="#999999"/>
<path d="M28.438 89.8261C28.3569 89.9156 28.2826 90.0119 28.1965 90.0963C24.939 93.3616 21.6799 96.6219 18.4191 99.8771C18.3346 99.9616 18.2383 100.036 18.1471 100.115C18.0778 99.9106 18.0525 99.6936 18.0728 99.4785C18.0728 97.8109 18.0728 96.1428 18.0728 94.4741C18.0728 94.2613 18.1083 94.035 17.9039 93.883C17.9749 93.8019 18.0407 93.7141 18.1167 93.6398C21.3933 90.3632 24.6705 87.0871 27.9482 83.8117C28.0242 83.7357 28.1171 83.6681 28.1897 83.5972C28.4194 83.7222 28.3586 83.935 28.3586 84.1376C28.3586 85.6847 28.3586 87.2329 28.3586 88.7823C28.3471 89.1321 28.3737 89.4821 28.438 89.8261Z" fill="#7B7B7B"/>
<path d="M37.4317 80.2954H46.8275C47.0099 80.417 47.02 80.6096 47.0217 80.8021C47.033 81.9709 47.033 83.1408 47.0217 84.3118C47.035 84.4059 47.0239 84.5019 46.9897 84.5906C46.9554 84.6793 46.8989 84.7577 46.8258 84.8185H37.4301C37.4323 83.3097 37.4329 81.802 37.4317 80.2954Z" fill="#838383"/>
<path d="M57.0339 80.2952L65.9499 80.2817C66.4566 80.2817 66.9717 80.2817 67.4835 80.2952C67.4835 81.616 67.4835 82.9374 67.4835 84.2593C67.4835 84.7896 67.4599 84.8149 66.943 84.8149H57.0322C56.9611 84.7527 56.9066 84.6739 56.8733 84.5855C56.84 84.4971 56.829 84.4019 56.8413 84.3082C56.8289 83.1395 56.8289 81.9701 56.8413 80.8003C56.843 80.6094 56.8531 80.4185 57.0339 80.2952Z" fill="#8C8C8C"/>
<path d="M57.0339 80.2952C57.0339 81.8007 57.0339 83.3067 57.0339 84.8132H46.8258C46.8258 83.3089 46.8258 81.8035 46.8258 80.2969L55.0561 80.2834C55.7165 80.2817 56.3752 80.2902 57.0339 80.2952Z" fill="#888888"/>
<path d="M92.7674 25.4647C92.6959 25.2197 92.6646 24.9648 92.6745 24.7098C92.6745 23.0557 92.6745 21.4028 92.6745 19.751C92.701 19.5637 92.6716 19.3727 92.5901 19.202C92.71 19.0737 92.8249 18.9419 92.9481 18.8186C95.6708 16.0949 98.3945 13.3717 101.119 10.6491C101.243 10.5258 101.376 10.4127 101.504 10.2944C101.712 10.4144 101.665 10.6187 101.665 10.8011C101.665 12.4822 101.665 14.1627 101.665 15.8427C101.646 16.0576 101.678 16.2741 101.758 16.4744C101.449 16.7919 101.143 17.1128 100.829 17.4269C98.2797 19.9784 95.7293 22.5299 93.1778 25.0813C93.0461 25.2131 92.9042 25.3347 92.7674 25.4647Z" fill="#9D9D9D"/>
<path d="M26.6578 109.771C27.6138 109.771 28.5681 109.752 29.5291 109.756C32.5422 109.756 35.5559 109.764 38.5701 109.779C38.7525 109.903 38.7627 110.094 38.7644 110.286C38.7767 111.456 38.7767 112.626 38.7644 113.796C38.7776 113.89 38.7666 113.986 38.7323 114.075C38.698 114.163 38.6416 114.242 38.5684 114.302L26.6595 114.292C26.6584 112.785 26.6578 111.278 26.6578 109.771Z" fill="#7E7E7E"/>
<path d="M38.5634 114.298C38.5634 112.791 38.5634 111.285 38.5634 109.78C40.8637 109.78 43.1641 109.776 45.4645 109.768C46.7819 109.768 48.0993 109.768 49.4183 109.78C49.4183 111.114 49.4082 112.45 49.4183 113.784C49.4183 114.163 49.3052 114.31 48.9117 114.308C45.4679 114.294 42.0156 114.298 38.5634 114.298Z" fill="#848484"/>
</g>
</svg>
