<svg width="764" height="211" viewBox="0 0 764 211" fill="none" xmlns="http://www.w3.org/2000/svg">
<g clip-path="url(#clip0)">
<path d="M64.8709 73.6053H0V52.7959H82.0768V211H64.8709V73.6053Z" fill="#D4D4D4"/>
<path d="M181.888 15.4526C161.758 45.0724 151.694 77.5863 151.694 112.995C151.694 147.093 161.758 179.762 181.888 211H150.65C126.259 179.683 114.064 146.86 114.064 112.531C114.064 76.5047 126.259 44.1452 150.65 15.4526H181.888Z" fill="#D4D4D4"/>
<path d="M217.652 22.053L262.569 -0.0219727L269.747 19.1759L222.728 35.5188L217.652 22.053Z" fill="#D4D4D4"/>
<path d="M319.035 81.3173C319.091 85.0029 318.404 88.6619 317.015 92.0755C315.627 95.4892 313.565 98.5873 310.954 101.185C308.419 103.815 305.381 105.907 302.021 107.336C298.661 108.765 295.048 109.501 291.397 109.501C287.747 109.501 284.134 108.765 280.774 107.336C277.414 105.907 274.376 103.815 271.841 101.185C266.64 95.884 263.725 88.7493 263.725 81.3173C263.725 73.8852 266.64 66.7505 271.841 61.4498C274.383 58.8322 277.424 56.7516 280.783 55.3309C284.142 53.9102 287.751 53.1782 291.397 53.1782C295.044 53.1782 298.653 53.9102 302.012 55.3309C305.371 56.7516 308.412 58.8322 310.954 61.4498C313.568 64.0452 315.632 67.143 317.02 70.5571C318.409 73.9712 319.094 77.6312 319.035 81.3173Z" fill="#D4D4D4"/>
<path d="M500.307 81.3169C500.362 85.0025 499.675 88.6615 498.287 92.0751C496.898 95.4888 494.837 98.5869 492.226 101.184C489.69 103.816 486.651 105.909 483.291 107.338C479.93 108.768 476.316 109.505 472.665 109.505C469.014 109.505 465.4 108.768 462.039 107.338C458.679 105.909 455.64 103.816 453.105 101.184C447.909 95.8809 444.998 88.7472 444.998 81.3169C444.998 73.8865 447.909 66.7529 453.105 61.4494C455.648 58.8316 458.689 56.7508 462.049 55.33C465.408 53.9093 469.018 53.1772 472.665 53.1772C476.312 53.1772 479.922 53.9093 483.281 55.33C486.641 56.7508 489.682 58.8316 492.226 61.4494C494.84 64.0448 496.903 67.1426 498.292 70.5567C499.68 73.9708 500.366 77.6308 500.307 81.3169Z" fill="#D4D4D4"/>
<path d="M565.457 22.0529L560.314 35.5407L513.295 19.1979L520.466 0L565.457 22.0529Z" fill="#D4D4D4"/>
<path d="M582.09 211C602.234 181.385 612.309 148.832 612.314 113.34C612.314 79.2419 602.239 46.6199 582.09 15.4746H613.357C637.748 46.7916 649.943 79.5754 649.943 113.826C649.943 149.862 637.748 182.261 613.357 211.022L582.09 211Z" fill="#D4D4D4"/>
<path d="M764.007 52.7959V73.6053H699.033V211H681.835V52.7959H764.007Z" fill="#D4D4D4"/>
<path d="M455.654 211C435.421 197.191 413.205 190.287 389.005 190.287C365.711 190.287 343.392 197.191 322.048 211V189.573C343.441 172.845 365.868 164.483 389.328 164.488C413.94 164.488 436.048 172.85 455.654 189.573V211Z" fill="#D4D4D4"/>
</g>
<defs>
<clipPath id="clip0">
<rect width="764" height="211" fill="white"/>
</clipPath>
</defs>
</svg>
