<svg width="183" height="46" viewBox="0 0 183 46" fill="none" xmlns="http://www.w3.org/2000/svg">
<g clip-path="url(#clip0)">
<path d="M51.7253 26.4679C51.7226 26.6278 51.6572 26.7802 51.5432 26.8916C51.4293 27.0031 51.2761 27.0647 51.1172 27.0629H39.9173C40.2045 29.8508 42.2823 32.4006 45.2216 32.4006C47.2319 32.4006 48.7184 31.6357 49.8333 30.0207C49.8852 29.9359 49.9571 29.8652 50.0425 29.8148C50.1279 29.7644 50.2243 29.7359 50.3232 29.7318C50.397 29.7296 50.4704 29.7427 50.539 29.7702C50.6076 29.7976 50.6699 29.8388 50.7221 29.8914C50.7743 29.9439 50.8152 30.0066 50.8425 30.0756C50.8698 30.1446 50.8828 30.2185 50.8807 30.2927C50.8811 30.3953 50.8517 30.4957 50.7962 30.5817C49.6644 32.5536 47.4177 33.5226 45.2216 33.5226C41.4546 33.5226 38.7517 30.1227 38.7517 26.5019C38.7517 22.8811 41.4377 19.4812 45.2216 19.4812C49.0056 19.4812 51.7084 22.8471 51.7253 26.4679ZM50.5259 25.9409C50.2894 23.153 48.161 20.6032 45.2216 20.6032C42.2823 20.6032 40.2045 23.153 39.9173 25.9409H50.5259Z" fill="#3B3B3B"/>
<path d="M65.3408 19.7532C65.4873 19.7575 65.6266 19.818 65.7303 19.9223C65.8339 20.0266 65.894 20.1668 65.8982 20.3142C65.9003 20.3884 65.8874 20.4623 65.8601 20.5314C65.8328 20.6004 65.7918 20.6631 65.7396 20.7156C65.6874 20.7681 65.6252 20.8093 65.5566 20.8368C65.488 20.8642 65.4146 20.8773 65.3408 20.8752H62.3339V32.7577C62.3326 32.906 62.2734 33.0479 62.1691 33.1529C62.0649 33.2578 61.9239 33.3173 61.7764 33.3186C61.6299 33.3144 61.4906 33.2539 61.3869 33.1496C61.2833 33.0453 61.2232 32.9051 61.219 32.7577V20.8752H58.3303C58.2565 20.8773 58.1831 20.8642 58.1145 20.8368C58.0459 20.8093 57.9837 20.7681 57.9315 20.7156C57.8793 20.6631 57.8383 20.6004 57.811 20.5314C57.7838 20.4623 57.7708 20.3884 57.7729 20.3142C57.7742 20.1658 57.8333 20.0239 57.9376 19.919C58.0419 19.8141 58.1829 19.7546 58.3303 19.7532H61.219V15.4184C61.2193 15.2748 61.2704 15.136 61.3633 15.0269C61.4562 14.9178 61.5847 14.8457 61.7257 14.8234C61.8046 14.8129 61.8847 14.8196 61.9607 14.8431C62.0367 14.8666 62.1068 14.9064 62.1662 14.9596C62.2255 15.0129 62.2727 15.0784 62.3046 15.1517C62.3364 15.225 62.3522 15.3044 62.3508 15.3844V19.7532H65.3408Z" fill="#3B3B3B"/>
<path d="M83.6693 25.4988V32.6895C83.6651 32.8369 83.605 32.9771 83.5013 33.0814C83.3977 33.1857 83.2584 33.2462 83.1119 33.2504C83.0381 33.2526 82.9647 33.2395 82.8961 33.212C82.8275 33.1846 82.7652 33.1434 82.713 33.0908C82.6608 33.0383 82.6198 32.9756 82.5926 32.9066C82.5653 32.8376 82.5523 32.7637 82.5544 32.6895V25.4988C82.5544 23.0679 81.1861 20.654 78.5002 20.654C75.0541 20.654 73.5675 23.6799 73.7702 26.7907C73.7702 26.8757 73.804 27.2327 73.804 27.2837V32.6725C73.8037 32.8161 73.7525 32.9549 73.6596 33.064C73.5668 33.173 73.4382 33.2452 73.2972 33.2674C73.2184 33.278 73.1383 33.2713 73.0622 33.2478C72.9862 33.2243 72.9162 33.1845 72.8568 33.1312C72.7975 33.078 72.7503 33.0125 72.7184 32.9391C72.6865 32.8658 72.6708 32.7865 72.6722 32.7065V9.06049C72.6735 8.91212 72.7327 8.7702 72.8369 8.66529C72.9412 8.56037 73.0822 8.50084 73.2297 8.49951C73.3762 8.50379 73.5155 8.56426 73.6191 8.66855C73.7228 8.77284 73.7829 8.91306 73.7871 9.06049V22.4219C74.75 20.688 76.4731 19.515 78.4833 19.515C81.7942 19.515 83.6693 22.4219 83.6693 25.4988Z" fill="#3B3B3B"/>
<path d="M103.788 26.4679C103.786 26.6278 103.72 26.7802 103.606 26.8916C103.492 27.0031 103.339 27.0647 103.18 27.0629H91.9805C92.2677 29.8508 94.3455 32.4006 97.2848 32.4006C99.295 32.4006 100.782 31.6357 101.897 30.0207C101.948 29.9359 102.02 29.8652 102.106 29.8148C102.191 29.7644 102.287 29.7359 102.386 29.7318C102.46 29.7296 102.534 29.7427 102.602 29.7702C102.671 29.7976 102.733 29.8388 102.785 29.8914C102.837 29.9439 102.878 30.0066 102.906 30.0756C102.933 30.1446 102.946 30.2185 102.944 30.2927C102.944 30.3953 102.915 30.4957 102.859 30.5817C101.728 32.5536 99.4809 33.5226 97.2848 33.5226C93.5178 33.5226 90.8149 30.1227 90.8149 26.5019C90.8149 22.8811 93.5009 19.4812 97.2848 19.4812C101.035 19.4812 103.772 22.8471 103.788 26.4679ZM102.572 25.9409C102.336 23.153 100.207 20.6032 97.2679 20.6032C94.3286 20.6032 92.2508 23.153 91.9636 25.9409H102.572Z" fill="#3B3B3B"/>
<path d="M117.556 20.2802C117.567 20.4311 117.518 20.5801 117.42 20.6948C117.321 20.8094 117.182 20.8804 117.032 20.8921C113.738 21.3851 112.252 24.088 112.252 27.2328V32.6216C112.251 32.7653 112.2 32.9041 112.107 33.0131C112.014 33.1222 111.886 33.1943 111.745 33.2166C111.666 33.2271 111.586 33.2204 111.51 33.1969C111.434 33.1734 111.364 33.1337 111.305 33.0804C111.245 33.0271 111.198 32.9616 111.166 32.8883C111.134 32.815 111.118 32.7356 111.12 32.6556V20.3651C111.12 20.2215 111.171 20.0827 111.264 19.9736C111.357 19.8646 111.486 19.7924 111.627 19.7702C111.706 19.7596 111.786 19.7664 111.862 19.7899C111.938 19.8134 112.008 19.8531 112.067 19.9064C112.126 19.9596 112.174 20.0252 112.206 20.0985C112.237 20.1718 112.253 20.2511 112.252 20.3311V22.83C113.181 21.2491 115.022 19.7532 116.948 19.7532C117.235 19.7532 117.556 19.9572 117.556 20.2802Z" fill="#3B3B3B"/>
<path d="M135.969 26.4679C135.966 26.6278 135.901 26.7802 135.787 26.8916C135.673 27.0031 135.52 27.0647 135.361 27.0629H124.161C124.448 29.8508 126.526 32.4006 129.465 32.4006C131.476 32.4006 132.962 31.6357 134.077 30.0207C134.129 29.9359 134.201 29.8652 134.286 29.8148C134.372 29.7644 134.468 29.7359 134.567 29.7318C134.641 29.7296 134.714 29.7427 134.783 29.7702C134.851 29.7976 134.914 29.8388 134.966 29.8914C135.018 29.9439 135.059 30.0066 135.086 30.0756C135.113 30.1446 135.126 30.2185 135.124 30.2927C135.125 30.3953 135.095 30.4957 135.04 30.5817C133.908 32.5536 131.661 33.5226 129.465 33.5226C125.698 33.5226 122.995 30.1227 122.995 26.5019C122.995 22.8811 125.681 19.4812 129.465 19.4812C133.249 19.4812 135.952 22.8471 135.969 26.4679ZM134.77 25.9409C134.533 23.153 132.405 20.6032 129.465 20.6032C126.526 20.6032 124.448 23.153 124.161 25.9409H134.77Z" fill="#3B3B3B"/>
<path d="M154.078 20.4162V32.7576C154.074 32.9051 154.014 33.0453 153.91 33.1496C153.806 33.2538 153.667 33.3143 153.52 33.3186C153.447 33.3207 153.373 33.3076 153.305 33.2802C153.236 33.2528 153.174 33.2115 153.122 33.159C153.069 33.1065 153.028 33.0438 153.001 32.9748C152.974 32.9058 152.961 32.8319 152.963 32.7576V30.4117C152.034 32.2646 150.395 33.6076 148.301 33.6076C144.973 33.6076 143.131 30.7007 143.131 27.6238V20.3992C143.133 20.2508 143.192 20.1089 143.296 20.004C143.4 19.899 143.541 19.8395 143.689 19.8382C143.835 19.8425 143.975 19.9029 144.078 20.0072C144.182 20.1115 144.242 20.2517 144.246 20.3992V27.6238C144.246 30.0547 145.615 32.4686 148.301 32.4686C152.068 32.4686 152.963 28.9158 152.963 24.989V20.3822C152.964 20.2912 152.987 20.2019 153.03 20.1217C153.072 20.0415 153.133 19.9727 153.208 19.9211C153.282 19.8695 153.368 19.8366 153.458 19.8251C153.547 19.8136 153.638 19.824 153.723 19.8552C153.829 19.9048 153.919 19.9841 153.982 20.0835C154.045 20.1829 154.078 20.2983 154.078 20.4162Z" fill="#3B3B3B"/>
<path d="M182.441 25.4479V32.6726C182.436 32.82 182.376 32.9602 182.273 33.0645C182.169 33.1688 182.03 33.2293 181.883 33.2335C181.809 33.2357 181.736 33.2226 181.667 33.1951C181.599 33.1677 181.537 33.1265 181.484 33.0739C181.432 33.0214 181.391 32.9587 181.364 32.8897C181.337 32.8207 181.324 32.7468 181.326 32.6726V25.4479C181.326 23.017 179.957 20.6371 177.271 20.6371C173.893 20.6371 172.609 24.2749 172.609 27.0968V32.6726C172.605 32.82 172.545 32.9602 172.441 33.0645C172.338 33.1688 172.198 33.2293 172.052 33.2335C171.978 33.2357 171.904 33.2226 171.836 33.1951C171.767 33.1677 171.705 33.1265 171.653 33.0739C171.601 33.0214 171.56 32.9587 171.532 32.8897C171.505 32.8207 171.492 32.7468 171.494 32.6726V25.4479C171.494 23.017 170.126 20.6371 167.44 20.6371C164.028 20.6371 162.626 23.34 162.744 26.9438C162.744 27.0288 162.778 27.1818 162.744 27.2328V32.6556C162.744 32.7992 162.692 32.938 162.599 33.0471C162.507 33.1561 162.378 33.2283 162.237 33.2505C162.158 33.2611 162.078 33.2544 162.002 33.2309C161.926 33.2074 161.856 33.1676 161.797 33.1143C161.737 33.0611 161.69 32.9956 161.658 32.9223C161.626 32.8489 161.611 32.7696 161.612 32.6896V20.3651C161.612 20.2215 161.663 20.0826 161.756 19.9736C161.849 19.8645 161.978 19.7924 162.119 19.7701C162.198 19.7596 162.278 19.7663 162.354 19.7898C162.43 19.8133 162.5 19.8531 162.559 19.9063C162.619 19.9596 162.666 20.0251 162.698 20.0984C162.729 20.1717 162.745 20.2511 162.744 20.3311V22.388C163.707 20.6541 165.43 19.5151 167.44 19.5151C169.72 19.5151 171.494 20.9771 172.221 23.102C173.15 20.9941 174.957 19.5151 177.271 19.5151C180.566 19.5151 182.441 22.388 182.441 25.4479Z" fill="#3B3B3B"/>
<path opacity="0.6" d="M14.0209 17.0161L0 23.4248L14.0209 31.7715L28.0587 23.4248L14.0209 17.0161Z" fill="black"/>
<path opacity="0.45" d="M0 23.425L14.0209 31.7716V0L0 23.425Z" fill="black"/>
<path opacity="0.8" d="M14.0209 0V31.7716L28.0587 23.425L14.0209 0Z" fill="black"/>
<path opacity="0.45" d="M0 26.1108L14.0209 46V34.4405L0 26.1108Z" fill="black"/>
<path opacity="0.8" d="M14.0209 34.4405V46L28.0587 26.1108L14.0209 34.4405Z" fill="black"/>
</g>
<defs>
<clipPath id="clip0">
<rect width="182.441" height="46" fill="white"/>
</clipPath>
</defs>
</svg>
