<svg width="290" height="59" viewBox="0 0 290 59" fill="none" xmlns="http://www.w3.org/2000/svg">
<path d="M66.3433 33.9478C66.3399 34.1529 66.2559 34.3483 66.1098 34.4913C65.9636 34.6343 65.7672 34.7132 65.5633 34.7109H51.1983C51.5667 38.2866 54.2317 41.5572 58.0017 41.5572C60.58 41.5572 62.4867 40.576 63.9167 38.5047C63.9832 38.3959 64.0754 38.3052 64.1849 38.2405C64.2945 38.1759 64.4181 38.1393 64.545 38.134C64.6396 38.1313 64.7338 38.1481 64.8218 38.1833C64.9097 38.2185 64.9896 38.2714 65.0566 38.3387C65.1235 38.4061 65.1761 38.4865 65.2111 38.575C65.246 38.6635 65.2627 38.7583 65.26 38.8535C65.2605 38.9851 65.2228 39.1139 65.1517 39.2242C63.7 41.7534 60.8183 42.9962 58.0017 42.9962C53.17 42.9962 49.7033 38.6355 49.7033 33.9914C49.7033 29.3473 53.1483 24.9866 58.0017 24.9866C62.855 24.9866 66.3217 29.3036 66.3433 33.9478ZM64.805 33.2719C64.5017 29.6961 61.7717 26.4256 58.0017 26.4256C54.2317 26.4256 51.5667 29.6961 51.1983 33.2719H64.805Z" fill="#3B3B3B"/>
<path d="M83.8067 25.3355C83.9946 25.341 84.1733 25.4186 84.3062 25.5524C84.4391 25.6861 84.5162 25.866 84.5217 26.0551C84.5244 26.1503 84.5077 26.2451 84.4727 26.3336C84.4377 26.4221 84.3852 26.5025 84.3182 26.5699C84.2513 26.6372 84.1714 26.6901 84.0834 26.7253C83.9955 26.7605 83.9013 26.7773 83.8067 26.7746H79.95V42.0151C79.9483 42.2054 79.8724 42.3875 79.7387 42.522C79.605 42.6566 79.4241 42.733 79.235 42.7347C79.0471 42.7292 78.8684 42.6516 78.7354 42.5178C78.6025 42.3841 78.5254 42.2042 78.52 42.0151V26.7746H74.815C74.7204 26.7773 74.6262 26.7605 74.5382 26.7253C74.4503 26.6901 74.3704 26.6372 74.3034 26.5699C74.2365 26.5025 74.1839 26.4221 74.1489 26.3336C74.114 26.2451 74.0973 26.1503 74.1 26.0551C74.1017 25.8648 74.1776 25.6827 74.3113 25.5482C74.445 25.4136 74.6259 25.3372 74.815 25.3355H78.52V19.7757C78.5204 19.5914 78.586 19.4134 78.7052 19.2735C78.8243 19.1336 78.9891 19.0411 79.17 19.0126C79.2711 18.999 79.3739 19.0077 79.4714 19.0378C79.5689 19.0679 79.6587 19.1189 79.7349 19.1872C79.811 19.2555 79.8715 19.3396 79.9124 19.4336C79.9533 19.5277 79.9735 19.6295 79.9717 19.7321V25.3355H83.8067Z" fill="#3B3B3B"/>
<path d="M107.315 32.705V41.9279C107.31 42.1169 107.232 42.2968 107.1 42.4305C106.967 42.5643 106.788 42.6419 106.6 42.6474C106.505 42.6501 106.411 42.6333 106.323 42.5981C106.235 42.5629 106.155 42.51 106.088 42.4427C106.021 42.3753 105.969 42.2949 105.934 42.2064C105.899 42.1178 105.882 42.0231 105.885 41.9279V32.705C105.885 29.5871 104.13 26.491 100.685 26.491C96.265 26.491 94.3584 30.372 94.6184 34.3621C94.6184 34.4711 94.6617 34.929 94.6617 34.9944V41.906C94.6613 42.0903 94.5957 42.2683 94.4765 42.4082C94.3574 42.5481 94.1925 42.6406 94.0117 42.6692C93.9106 42.6827 93.8078 42.6741 93.7103 42.6439C93.6128 42.6138 93.5229 42.5628 93.4468 42.4945C93.3707 42.4262 93.3101 42.3421 93.2693 42.2481C93.2284 42.1541 93.2082 42.0523 93.21 41.9497V11.6211C93.2117 11.4308 93.2876 11.2488 93.4213 11.1142C93.555 10.9797 93.7359 10.9033 93.925 10.9016C94.1129 10.9071 94.2916 10.9847 94.4246 11.1184C94.5575 11.2522 94.6346 11.432 94.64 11.6211V28.7586C95.875 26.5346 98.085 25.0302 100.663 25.0302C104.91 25.0302 107.315 28.7586 107.315 32.705Z" fill="#3B3B3B"/>
<path d="M133.12 33.9478C133.117 34.1529 133.033 34.3483 132.886 34.4913C132.74 34.6343 132.544 34.7132 132.34 34.7109H117.975C118.343 38.2866 121.008 41.5572 124.778 41.5572C127.357 41.5572 129.263 40.576 130.693 38.5047C130.76 38.3959 130.852 38.3052 130.962 38.2405C131.071 38.1759 131.195 38.1393 131.322 38.134C131.416 38.1313 131.51 38.1481 131.598 38.1833C131.686 38.2185 131.766 38.2714 131.833 38.3387C131.9 38.4061 131.953 38.4865 131.988 38.575C132.023 38.6635 132.039 38.7583 132.037 38.8535C132.037 38.9851 132 39.1139 131.928 39.2242C130.477 41.7534 127.595 42.9962 124.778 42.9962C119.947 42.9962 116.48 38.6355 116.48 33.9914C116.48 29.3473 119.925 24.9866 124.778 24.9866C129.588 24.9866 133.098 29.3036 133.12 33.9478ZM131.56 33.2719C131.257 29.6961 128.527 26.4256 124.757 26.4256C120.987 26.4256 118.322 29.6961 117.953 33.2719H131.56Z" fill="#3B3B3B"/>
<path d="M150.778 26.0114C150.792 26.2049 150.729 26.3961 150.603 26.5432C150.477 26.6902 150.299 26.7812 150.107 26.7963C145.882 27.4286 143.975 30.8953 143.975 34.9289V41.8406C143.975 42.0249 143.909 42.2029 143.79 42.3428C143.671 42.4827 143.506 42.5752 143.325 42.6037C143.224 42.6173 143.121 42.6086 143.024 42.5785C142.926 42.5483 142.836 42.4974 142.76 42.4291C142.684 42.3608 142.623 42.2767 142.583 42.1827C142.542 42.0886 142.522 41.9868 142.523 41.8842V26.1204C142.524 25.9361 142.589 25.7581 142.709 25.6182C142.828 25.4783 142.992 25.3858 143.173 25.3573C143.274 25.3437 143.377 25.3524 143.475 25.3825C143.572 25.4126 143.662 25.4636 143.738 25.5319C143.814 25.6002 143.875 25.6843 143.916 25.7783C143.957 25.8724 143.977 25.9742 143.975 26.0768V29.2819C145.167 27.2541 147.528 25.3354 149.998 25.3354C150.367 25.3354 150.778 25.5971 150.778 26.0114Z" fill="#3B3B3B"/>
<path d="M174.395 33.9478C174.392 34.1529 174.308 34.3483 174.161 34.4913C174.015 34.6343 173.819 34.7132 173.615 34.7109H159.25C159.618 38.2866 162.283 41.5572 166.053 41.5572C168.632 41.5572 170.538 40.576 171.968 38.5047C172.035 38.3959 172.127 38.3052 172.237 38.2405C172.346 38.1759 172.47 38.1393 172.597 38.134C172.691 38.1313 172.785 38.1481 172.873 38.1833C172.961 38.2185 173.041 38.2714 173.108 38.3387C173.175 38.4061 173.228 38.4865 173.263 38.575C173.298 38.6635 173.314 38.7583 173.312 38.8535C173.312 38.9851 173.274 39.1139 173.203 39.2242C171.752 41.7534 168.87 42.9962 166.053 42.9962C161.222 42.9962 157.755 38.6355 157.755 33.9914C157.755 29.3473 161.2 24.9866 166.053 24.9866C170.907 24.9866 174.373 29.3036 174.395 33.9478ZM172.857 33.2719C172.553 29.6961 169.823 26.4256 166.053 26.4256C162.283 26.4256 159.618 29.6961 159.25 33.2719H172.857Z" fill="#3B3B3B"/>
<path d="M197.622 26.1858V42.0151C197.616 42.2042 197.539 42.384 197.406 42.5178C197.273 42.6515 197.095 42.7291 196.907 42.7346C196.812 42.7373 196.718 42.7205 196.63 42.6853C196.542 42.6501 196.462 42.5972 196.395 42.5299C196.328 42.4625 196.276 42.3821 196.241 42.2936C196.206 42.2051 196.189 42.1103 196.192 42.0151V39.0062C195 41.3828 192.898 43.1052 190.212 43.1052C185.943 43.1052 183.582 39.3769 183.582 35.4304V26.164C183.583 25.9737 183.659 25.7917 183.793 25.6571C183.927 25.5225 184.108 25.4462 184.297 25.4445C184.485 25.45 184.663 25.5275 184.796 25.6613C184.929 25.7951 185.006 25.9749 185.012 26.164V35.4304C185.012 38.5483 186.767 41.6444 190.212 41.6444C195.043 41.6444 196.192 37.0875 196.192 32.0509V26.1422C196.193 26.0255 196.223 25.911 196.277 25.8081C196.332 25.7052 196.41 25.617 196.506 25.5508C196.601 25.4846 196.711 25.4424 196.826 25.4277C196.941 25.413 197.058 25.4262 197.167 25.4663C197.303 25.53 197.418 25.6316 197.499 25.7591C197.579 25.8866 197.622 26.0347 197.622 26.1858Z" fill="#3B3B3B"/>
<path d="M234 32.6397V41.9061C233.995 42.0952 233.917 42.275 233.785 42.4088C233.652 42.5426 233.473 42.6201 233.285 42.6256C233.19 42.6283 233.096 42.6116 233.008 42.5764C232.92 42.5412 232.84 42.4883 232.773 42.4209C232.706 42.3535 232.654 42.2731 232.619 42.1846C232.584 42.0961 232.567 42.0013 232.57 41.9061V32.6397C232.57 29.5218 230.815 26.4693 227.37 26.4693C223.037 26.4693 221.39 31.1352 221.39 34.7546V41.9061C221.385 42.0952 221.307 42.275 221.175 42.4088C221.042 42.5426 220.863 42.6201 220.675 42.6256C220.58 42.6283 220.486 42.6116 220.398 42.5764C220.31 42.5412 220.23 42.4883 220.163 42.4209C220.096 42.3535 220.044 42.2731 220.009 42.1846C219.974 42.0961 219.957 42.0013 219.96 41.9061V32.6397C219.96 29.5218 218.205 26.4693 214.76 26.4693C210.383 26.4693 208.585 29.936 208.737 34.5584C208.737 34.6674 208.78 34.8636 208.737 34.929V41.8843C208.736 42.0685 208.671 42.2466 208.551 42.3865C208.432 42.5264 208.268 42.6189 208.087 42.6474C207.986 42.6609 207.883 42.6523 207.785 42.6222C207.688 42.592 207.598 42.5411 207.522 42.4727C207.446 42.4044 207.385 42.3204 207.344 42.2264C207.303 42.1323 207.283 42.0305 207.285 41.9279V26.1204C207.285 25.9362 207.351 25.7582 207.47 25.6183C207.589 25.4784 207.754 25.3859 207.935 25.3573C208.036 25.3438 208.139 25.3524 208.236 25.3826C208.334 25.4127 208.424 25.4637 208.5 25.532C208.576 25.6003 208.637 25.6844 208.677 25.7784C208.718 25.8724 208.738 25.9742 208.737 26.0768V28.715C209.972 26.4911 212.182 25.0303 214.76 25.0303C217.685 25.0303 219.96 26.9054 220.892 29.6308C222.083 26.9272 224.402 25.0303 227.37 25.0303C231.595 25.0303 234 28.715 234 32.6397Z" fill="#3B3B3B"/>
<path opacity="0.6" d="M17.9833 21.8252L0 30.0451L17.9833 40.7505L35.9883 30.0451L17.9833 21.8252Z" fill="black"/>
<path opacity="0.45" d="M0 30.0451L17.9833 40.7505V0L0 30.0451Z" fill="black"/>
<path opacity="0.8" d="M17.9833 0V40.7505L35.9883 30.0451L17.9833 0Z" fill="black"/>
<path opacity="0.45" d="M0 33.49L17.9833 59V44.1737L0 33.49Z" fill="black"/>
<path opacity="0.8" d="M17.9833 44.1737V59L35.9883 33.49L17.9833 44.1737Z" fill="black"/>
<path d="M278.5 42L268.541 24.75L288.459 24.75L278.5 42Z" fill="#575757"/>
</svg>
