<svg width="316" height="19" viewBox="0 0 316 19" fill="none" xmlns="http://www.w3.org/2000/svg">
<path d="M151.309 18.288C150.253 18.288 149.333 18.096 148.549 17.712C147.781 17.312 147.141 16.744 146.629 16.008C146.133 15.272 145.765 14.368 145.525 13.296C145.285 12.224 145.165 11 145.165 9.624C145.165 8.264 145.285 7.048 145.525 5.976C145.765 4.888 146.133 3.976 146.629 3.24C147.141 2.504 147.781 1.944 148.549 1.56C149.333 1.16 150.253 0.959999 151.309 0.959999C152.365 0.959999 153.277 1.16 154.045 1.56C154.829 1.944 155.469 2.504 155.965 3.24C156.477 3.976 156.853 4.888 157.093 5.976C157.333 7.048 157.453 8.264 157.453 9.624C157.453 11 157.333 12.224 157.093 13.296C156.853 14.368 156.477 15.272 155.965 16.008C155.469 16.744 154.829 17.312 154.045 17.712C153.277 18.096 152.365 18.288 151.309 18.288ZM151.309 16.056C152.509 16.056 153.357 15.608 153.853 14.712C154.349 13.8 154.597 12.568 154.597 11.016V8.208C154.597 6.672 154.349 5.456 153.853 4.56C153.357 3.648 152.509 3.192 151.309 3.192C150.109 3.192 149.261 3.648 148.765 4.56C148.269 5.456 148.021 6.672 148.021 8.208V11.04C148.021 12.576 148.269 13.8 148.765 14.712C149.261 15.608 150.109 16.056 151.309 16.056ZM163.18 18H160.516V1.248H166.78C168.38 1.248 169.596 1.696 170.428 2.592C171.276 3.488 171.7 4.72 171.7 6.288C171.7 7.568 171.388 8.624 170.764 9.456C170.14 10.288 169.244 10.8 168.076 10.992L171.94 18H168.964L165.412 11.232H163.18V18ZM166.396 9.072C168.06 9.072 168.892 8.312 168.892 6.792V5.76C168.892 4.24 168.06 3.48 166.396 3.48H163.18V9.072H166.396Z" fill="#C4C4C4"/>
<line x1="214" y1="11" x2="316" y2="11" stroke="#C4C4C4" stroke-width="2"/>
<line y1="11" x2="102" y2="11" stroke="#C4C4C4" stroke-width="2"/>
</svg>
