<svg width="321" height="91" viewBox="0 0 321 91" fill="none" xmlns="http://www.w3.org/2000/svg">
<path d="M152.586 41.8232C152.586 48.6765 147.03 54.2322 140.177 54.2322C133.324 54.2322 127.768 48.6765 127.768 41.8232C127.768 34.9698 133.324 29.4141 140.177 29.4141C147.03 29.4141 152.586 34.9698 152.586 41.8232Z" fill="#B1B1B1"/>
<path d="M8.64595 61.3619H7.96174V90.0807H0V46.8787H11.1962L21.0862 75.5975H21.7704V46.8787H29.7321V90.0807H18.5359L8.64595 61.3619Z" fill="#575757"/>
<path d="M38.4782 90.0807V46.8787H67.2773V54.4916H47.8083V64.3947H65.2246V72.0076H47.8083V90.0807H38.4782Z" fill="#575757"/>
<path d="M94.1238 54.4916V90.0807H84.7937V54.4916H72.2913V46.8787H106.626V54.4916H94.1238Z" fill="#575757"/>
<path d="M179.242 90.2515V46.7083H188.689V82.5784H207.456V90.2515H179.242Z" fill="#575757"/>
<path d="M238.209 90.2515L235.457 79.7712H223.508L220.818 90.2515H211.31L223.133 46.7083H236.395L248.218 90.2515H238.209ZM229.764 55.7538H229.264L225.01 72.2229H234.018L229.764 55.7538Z" fill="#575757"/>
<path d="M253.324 46.7083H268.65C272.946 46.7083 276.219 47.748 278.471 49.8275C280.765 51.9069 281.912 54.7349 281.912 58.3115C281.912 60.8068 281.286 62.8031 280.035 64.3003C278.826 65.7559 277.074 66.8164 274.781 67.4818V67.8561C277.491 68.5215 279.577 69.686 281.036 71.3495C282.538 73.0131 283.288 75.3212 283.288 78.274C283.288 81.9338 282.121 84.845 279.785 87.0076C277.491 89.1702 274.259 90.2515 270.089 90.2515H253.324V46.7083ZM267.211 83.7013C269.463 83.7013 271.111 83.327 272.153 82.5784C273.196 81.8298 273.717 80.4574 273.717 78.4612V76.6521C273.717 74.6558 273.196 73.2834 272.153 72.5348C271.111 71.7862 269.463 71.4119 267.211 71.4119H262.457V83.7013H267.211ZM266.023 65.1736C268.233 65.1736 269.839 64.8201 270.839 64.1131C271.84 63.3645 272.341 62.0337 272.341 60.1206V58.2491C272.341 56.3361 271.84 55.026 270.839 54.319C269.839 53.612 268.233 53.2585 266.023 53.2585H262.457V65.1736H266.023Z" fill="#575757"/>
<path d="M304.095 91.0001C300.425 91.0001 297.235 90.3971 294.524 89.191C291.813 87.985 289.624 86.3422 287.956 84.2628L293.398 78.274C294.983 80.0207 296.714 81.31 298.59 82.1418C300.509 82.9735 302.448 83.3894 304.408 83.3894C306.66 83.3894 308.37 82.8904 309.538 81.8922C310.705 80.8941 311.289 79.4593 311.289 77.5878C311.289 76.049 310.831 74.8846 309.913 74.0944C309.037 73.3042 307.536 72.7427 305.409 72.41L300.842 71.6614C296.922 70.996 294.086 69.5612 292.335 67.357C290.583 65.1112 289.707 62.3872 289.707 59.1849C289.707 54.9844 291.083 51.7405 293.836 49.4532C296.588 47.1242 300.446 45.9597 305.409 45.9597C308.787 45.9597 311.727 46.4796 314.229 47.5193C316.732 48.559 318.754 49.973 320.298 51.7613L314.98 57.6877C313.812 56.3984 312.436 55.4003 310.851 54.6933C309.267 53.9447 307.473 53.5704 305.472 53.5704C301.259 53.5704 299.153 55.2963 299.153 58.7482C299.153 60.2454 299.612 61.3683 300.53 62.1169C301.489 62.8655 303.032 63.4269 305.159 63.8012L309.725 64.6122C313.27 65.236 316.002 66.5668 317.92 68.6047C319.839 70.6425 320.798 73.3874 320.798 76.8392C320.798 78.8771 320.443 80.7693 319.735 82.5161C319.026 84.2212 317.962 85.7184 316.544 87.0076C315.126 88.2553 313.375 89.2326 311.289 89.9396C309.246 90.6466 306.848 91.0001 304.095 91.0001Z" fill="#575757"/>
<path d="M136.517 90.0807V66.0106L114.899 22.0605H131.235L138.474 37.8475L143.756 51.1981H144.538L149.821 37.8475L157.059 22.0605H172.808L151.19 66.0106V90.0807H136.517Z" fill="#575757"/>
<path d="M151.667 18.8434C151.667 21.6355 149.403 23.899 146.611 23.899C143.819 23.899 141.556 21.6355 141.556 18.8434C141.556 16.0513 143.819 13.7878 146.611 13.7878C149.403 13.7878 151.667 16.0513 151.667 18.8434Z" fill="#B1B1B1"/>
<path d="M140.636 10.5707C140.636 12.3475 138.99 13.7879 136.96 13.7879C134.929 13.7879 133.283 12.3475 133.283 10.5707C133.283 8.79389 134.929 7.35352 136.96 7.35352C138.99 7.35352 140.636 8.79389 140.636 10.5707Z" fill="#B1B1B1"/>
<path d="M148.909 2.29798C148.909 3.56712 147.88 4.59596 146.611 4.59596C145.342 4.59596 144.313 3.56712 144.313 2.29798C144.313 1.02884 145.342 0 146.611 0C147.88 0 148.909 1.02884 148.909 2.29798Z" fill="#B1B1B1"/>
</svg>
