<svg width="273" height="22" viewBox="0 0 273 22" fill="none" xmlns="http://www.w3.org/2000/svg">
<path d="M0.130234 17V1.644H1.97823V15.394H9.26023V17H0.130234ZM17.2816 17.264C16.4896 17.264 15.771 17.1247 15.1256 16.846C14.495 16.5673 13.9523 16.1713 13.4976 15.658C13.0576 15.13 12.7203 14.5067 12.4856 13.788C12.251 13.0547 12.1336 12.2333 12.1336 11.324C12.1336 10.4293 12.251 9.61533 12.4856 8.882C12.7203 8.14867 13.0576 7.52533 13.4976 7.012C13.9523 6.484 14.495 6.08067 15.1256 5.802C15.771 5.52333 16.4896 5.384 17.2816 5.384C18.0736 5.384 18.785 5.52333 19.4156 5.802C20.061 6.08067 20.6036 6.484 21.0436 7.012C21.4983 7.52533 21.843 8.14867 22.0776 8.882C22.3123 9.61533 22.4296 10.4293 22.4296 11.324C22.4296 12.2333 22.3123 13.0547 22.0776 13.788C21.843 14.5067 21.4983 15.13 21.0436 15.658C20.6036 16.1713 20.061 16.5673 19.4156 16.846C18.785 17.1247 18.0736 17.264 17.2816 17.264ZM17.2816 15.746C18.2643 15.746 19.0563 15.4527 19.6576 14.866C20.259 14.2793 20.5596 13.37 20.5596 12.138V10.51C20.5596 9.278 20.259 8.36867 19.6576 7.782C19.0563 7.19533 18.2643 6.902 17.2816 6.902C16.299 6.902 15.507 7.19533 14.9056 7.782C14.3043 8.36867 14.0036 9.278 14.0036 10.51V12.138C14.0036 13.37 14.3043 14.2793 14.9056 14.866C15.507 15.4527 16.299 15.746 17.2816 15.746ZM36.215 18.298C36.215 19.442 35.7384 20.2853 34.785 20.828C33.8317 21.3853 32.4017 21.664 30.495 21.664C28.6617 21.664 27.3417 21.422 26.535 20.938C25.743 20.454 25.347 19.7573 25.347 18.848C25.347 18.232 25.5084 17.7553 25.831 17.418C26.1537 17.0807 26.6084 16.8313 27.195 16.67V16.406C26.8724 16.2447 26.623 16.0393 26.447 15.79C26.271 15.5407 26.183 15.2253 26.183 14.844C26.183 14.2573 26.3737 13.8173 26.755 13.524C27.151 13.2307 27.6424 13.0107 28.229 12.864V12.776C27.525 12.468 26.975 12.0133 26.579 11.412C26.1977 10.8107 26.007 10.1067 26.007 9.3C26.007 8.728 26.1097 8.2 26.315 7.716C26.5204 7.232 26.8137 6.82133 27.195 6.484C27.591 6.132 28.0604 5.86067 28.603 5.67C29.1457 5.47933 29.747 5.384 30.407 5.384C31.2577 5.384 32.0057 5.538 32.651 5.846V5.648C32.651 5.208 32.7537 4.84133 32.959 4.548C33.1644 4.25467 33.5164 4.108 34.015 4.108H36.105V5.648H33.553V6.418C33.9637 6.77 34.279 7.188 34.499 7.672C34.719 8.156 34.829 8.69867 34.829 9.3C34.829 9.872 34.719 10.4 34.499 10.884C34.2937 11.368 34.0004 11.786 33.619 12.138C33.2377 12.4753 32.7684 12.7393 32.211 12.93C31.6684 13.1207 31.067 13.216 30.407 13.216C30.2164 13.216 30.033 13.2087 29.857 13.194C29.681 13.1793 29.505 13.1573 29.329 13.128C29.153 13.1573 28.9697 13.2087 28.779 13.282C28.5884 13.3407 28.4124 13.4287 28.251 13.546C28.0897 13.6487 27.9577 13.7733 27.855 13.92C27.7524 14.0667 27.701 14.2353 27.701 14.426C27.701 14.7633 27.8697 14.9907 28.207 15.108C28.5444 15.2107 28.9844 15.262 29.527 15.262H32.035C33.5017 15.262 34.565 15.5407 35.225 16.098C35.885 16.6407 36.215 17.374 36.215 18.298ZM34.565 18.386C34.565 17.9313 34.3817 17.5647 34.015 17.286C33.6484 17.022 33.0104 16.89 32.101 16.89H28.163C27.4004 17.198 27.019 17.7113 27.019 18.43C27.019 18.9287 27.217 19.354 27.613 19.706C28.009 20.0727 28.669 20.256 29.593 20.256H31.309C32.3357 20.256 33.135 20.0947 33.707 19.772C34.279 19.464 34.565 19.002 34.565 18.386ZM30.407 11.852C31.287 11.852 31.9324 11.6467 32.343 11.236C32.7684 10.8253 32.981 10.2827 32.981 9.608V8.97C32.981 8.29533 32.7684 7.76 32.343 7.364C31.9324 6.95333 31.287 6.748 30.407 6.748C29.527 6.748 28.8817 6.95333 28.471 7.364C28.0604 7.76 27.855 8.29533 27.855 8.97V9.608C27.855 10.2827 28.0604 10.8253 28.471 11.236C28.8817 11.6467 29.527 11.852 30.407 11.852ZM44.3685 3.14C43.8551 3.14 43.4958 3.03733 43.2905 2.832C43.0851 2.612 42.9825 2.34067 42.9825 2.018V1.666C42.9825 1.34333 43.0851 1.07933 43.2905 0.873999C43.4958 0.653999 43.8551 0.543999 44.3685 0.543999C44.8818 0.543999 45.2411 0.653999 45.4465 0.873999C45.6518 1.07933 45.7545 1.34333 45.7545 1.666V2.018C45.7545 2.34067 45.6518 2.612 45.4465 2.832C45.2411 3.03733 44.8818 3.14 44.3685 3.14ZM39.3965 15.504H43.4885V7.144H39.3965V5.648H45.2485V15.504H49.0765V17H39.3965V15.504ZM52.4119 17V5.648H54.1719V7.496H54.2599C54.3772 7.21733 54.5239 6.95333 54.6999 6.704C54.8759 6.44 55.0885 6.21267 55.3379 6.022C55.6019 5.83133 55.9099 5.67733 56.2619 5.56C56.6139 5.44267 57.0245 5.384 57.4939 5.384C58.6819 5.384 59.6352 5.76533 60.3539 6.528C61.0725 7.276 61.4319 8.33933 61.4319 9.718V17H59.6719V10.026C59.6719 8.98467 59.4445 8.21467 58.9899 7.716C58.5352 7.20267 57.8679 6.946 56.9879 6.946C56.6359 6.946 56.2912 6.99 55.9539 7.078C55.6165 7.166 55.3159 7.298 55.0519 7.474C54.7879 7.65 54.5752 7.87733 54.4139 8.156C54.2525 8.43467 54.1719 8.75733 54.1719 9.124V17H52.4119ZM83.9427 3.14C83.4293 3.14 83.07 3.03733 82.8647 2.832C82.6593 2.612 82.5567 2.34067 82.5567 2.018V1.666C82.5567 1.34333 82.6593 1.07933 82.8647 0.873999C83.07 0.653999 83.4293 0.543999 83.9427 0.543999C84.456 0.543999 84.8153 0.653999 85.0207 0.873999C85.226 1.07933 85.3287 1.34333 85.3287 1.666V2.018C85.3287 2.34067 85.226 2.612 85.0207 2.832C84.8153 3.03733 84.456 3.14 83.9427 3.14ZM78.9707 15.504H83.0627V7.144H78.9707V5.648H84.8227V15.504H88.6507V17H78.9707V15.504ZM91.9861 17V5.648H93.7461V7.496H93.8341C93.9514 7.21733 94.0981 6.95333 94.2741 6.704C94.4501 6.44 94.6627 6.21267 94.9121 6.022C95.1761 5.83133 95.4841 5.67733 95.8361 5.56C96.1881 5.44267 96.5987 5.384 97.0681 5.384C98.2561 5.384 99.2094 5.76533 99.9281 6.528C100.647 7.276 101.006 8.33933 101.006 9.718V17H99.2461V10.026C99.2461 8.98467 99.0187 8.21467 98.5641 7.716C98.1094 7.20267 97.4421 6.946 96.5621 6.946C96.2101 6.946 95.8654 6.99 95.5281 7.078C95.1907 7.166 94.8901 7.298 94.6261 7.474C94.3621 7.65 94.1494 7.87733 93.9881 8.156C93.8267 8.43467 93.7461 8.75733 93.7461 9.124V17H91.9861ZM123.363 17C122.498 17 121.86 16.758 121.449 16.274C121.053 15.79 120.855 15.1667 120.855 14.404V7.144H117.071V5.648H119.887C120.268 5.648 120.532 5.57467 120.679 5.428C120.84 5.26667 120.921 4.99533 120.921 4.614V1.644H122.615V5.648H127.785V7.144H122.615V15.504H127.785V17H123.363ZM136.004 17.264C135.212 17.264 134.494 17.1247 133.848 16.846C133.218 16.5673 132.675 16.1713 132.22 15.658C131.78 15.13 131.443 14.5067 131.208 13.788C130.974 13.0547 130.856 12.2333 130.856 11.324C130.856 10.4293 130.974 9.61533 131.208 8.882C131.443 8.14867 131.78 7.52533 132.22 7.012C132.675 6.484 133.218 6.08067 133.848 5.802C134.494 5.52333 135.212 5.384 136.004 5.384C136.796 5.384 137.508 5.52333 138.138 5.802C138.784 6.08067 139.326 6.484 139.766 7.012C140.221 7.52533 140.566 8.14867 140.8 8.882C141.035 9.61533 141.152 10.4293 141.152 11.324C141.152 12.2333 141.035 13.0547 140.8 13.788C140.566 14.5067 140.221 15.13 139.766 15.658C139.326 16.1713 138.784 16.5673 138.138 16.846C137.508 17.1247 136.796 17.264 136.004 17.264ZM136.004 15.746C136.987 15.746 137.779 15.4527 138.38 14.866C138.982 14.2793 139.282 13.37 139.282 12.138V10.51C139.282 9.278 138.982 8.36867 138.38 7.782C137.779 7.19533 136.987 6.902 136.004 6.902C135.022 6.902 134.23 7.19533 133.628 7.782C133.027 8.36867 132.726 9.278 132.726 10.51V12.138C132.726 13.37 133.027 14.2793 133.628 14.866C134.23 15.4527 135.022 15.746 136.004 15.746ZM159.373 3.998H159.219V17H157.547V1.644H160.165L165.401 14.514H165.555V1.644H167.227V17H164.609L159.373 3.998ZM170.959 17V1.644H180.639V3.25H172.807V8.42H179.979V10.026H172.807V17H170.959ZM189.694 3.25V17H187.846V3.25H182.72V1.644H194.82V3.25H189.694ZM201.037 17V10.972L195.735 1.644H197.847L200.047 5.648L201.917 9.146H202.005L203.919 5.648L206.119 1.644H208.187L202.885 10.972V17H201.037ZM228.85 17.264C226.973 17.264 225.572 16.582 224.648 15.218C223.739 13.854 223.284 11.8887 223.284 9.322C223.284 6.75533 223.739 4.79 224.648 3.426C225.572 2.062 226.973 1.38 228.85 1.38C229.554 1.38 230.163 1.47533 230.676 1.666C231.189 1.85667 231.629 2.11333 231.996 2.436C232.363 2.75867 232.671 3.12533 232.92 3.536C233.169 3.932 233.389 4.33533 233.58 4.746L231.996 5.472C231.864 5.13467 231.71 4.81933 231.534 4.526C231.358 4.218 231.145 3.954 230.896 3.734C230.661 3.49933 230.375 3.316 230.038 3.184C229.715 3.052 229.319 2.986 228.85 2.986C227.633 2.986 226.723 3.448 226.122 4.372C225.535 5.296 225.242 6.528 225.242 8.068V10.576C225.242 12.116 225.535 13.348 226.122 14.272C226.723 15.196 227.633 15.658 228.85 15.658C229.319 15.658 229.715 15.592 230.038 15.46C230.375 15.328 230.661 15.152 230.896 14.932C231.145 14.6973 231.358 14.4333 231.534 14.14C231.71 13.832 231.864 13.5093 231.996 13.172L233.58 13.898C233.389 14.3233 233.169 14.734 232.92 15.13C232.671 15.526 232.363 15.8853 231.996 16.208C231.629 16.5307 231.189 16.7873 230.676 16.978C230.163 17.1687 229.554 17.264 228.85 17.264ZM237.092 0.72H238.852V7.496H238.94C239.057 7.21733 239.204 6.95333 239.38 6.704C239.556 6.44 239.768 6.21267 240.018 6.022C240.282 5.83133 240.59 5.67733 240.942 5.56C241.294 5.44267 241.704 5.384 242.174 5.384C243.362 5.384 244.315 5.76533 245.034 6.528C245.752 7.276 246.112 8.33933 246.112 9.718V17H244.352V10.026C244.352 8.98467 244.124 8.21467 243.67 7.716C243.215 7.20267 242.548 6.946 241.668 6.946C241.316 6.946 240.971 6.99 240.634 7.078C240.296 7.166 239.996 7.298 239.732 7.474C239.468 7.65 239.255 7.87733 239.094 8.156C238.932 8.43467 238.852 8.75733 238.852 9.124V17H237.092V0.72ZM259.017 17C258.328 17 257.836 16.824 257.543 16.472C257.25 16.12 257.066 15.68 256.993 15.152H256.883C256.634 15.812 256.23 16.3327 255.673 16.714C255.13 17.0807 254.397 17.264 253.473 17.264C252.285 17.264 251.339 16.956 250.635 16.34C249.931 15.724 249.579 14.8807 249.579 13.81C249.579 12.754 249.96 11.94 250.723 11.368C251.5 10.796 252.747 10.51 254.463 10.51H256.883V9.388C256.883 8.552 256.648 7.92867 256.179 7.518C255.71 7.09267 255.042 6.88 254.177 6.88C253.414 6.88 252.791 7.034 252.307 7.342C251.823 7.63533 251.434 8.03867 251.141 8.552L249.953 7.672C250.1 7.37867 250.298 7.09267 250.547 6.814C250.796 6.53533 251.104 6.29333 251.471 6.088C251.838 5.868 252.256 5.69933 252.725 5.582C253.194 5.45 253.715 5.384 254.287 5.384C255.622 5.384 256.678 5.72133 257.455 6.396C258.247 7.07067 258.643 8.00933 258.643 9.212V15.46H260.227V17H259.017ZM253.781 15.79C254.236 15.79 254.646 15.7387 255.013 15.636C255.394 15.5187 255.724 15.372 256.003 15.196C256.282 15.0053 256.494 14.7853 256.641 14.536C256.802 14.272 256.883 13.9933 256.883 13.7V11.83H254.463C253.407 11.83 252.637 11.9767 252.153 12.27C251.669 12.5633 251.427 12.9887 251.427 13.546V14.008C251.427 14.5947 251.632 15.042 252.043 15.35C252.468 15.6433 253.048 15.79 253.781 15.79ZM268.468 17C267.603 17 266.965 16.758 266.554 16.274C266.158 15.79 265.96 15.1667 265.96 14.404V7.144H262.176V5.648H264.992C265.374 5.648 265.638 5.57467 265.784 5.428C265.946 5.26667 266.026 4.99533 266.026 4.614V1.644H267.72V5.648H272.89V7.144H267.72V15.504H272.89V17H268.468Z" fill="#575757"/>
</svg>
