<svg width="294" height="46" viewBox="0 0 294 46" fill="none" xmlns="http://www.w3.org/2000/svg">
<path d="M282.5 34L272.541 16.75L292.459 16.75L282.5 34Z" fill="#575757"/>
<path d="M9.57818 34.5175C9.93881 34.156 10.4277 33.9529 10.9375 33.9529H57.9741C58.8308 33.9529 59.2598 34.9926 58.6536 35.6003L49.3594 44.9194C48.9988 45.281 48.5098 45.4841 48 45.4841H0.96351C0.106652 45.4841 -0.322296 44.4444 0.283838 43.8366L9.57818 34.5175Z" fill="#00FFA3"/>
<path d="M9.57818 0.533319C9.93881 0.191823 10.4277 0 10.9375 0H57.9741C58.8308 0 59.2598 0.98196 58.6536 1.55594L49.3594 10.3574C48.9988 10.6988 48.5098 10.8906 48 10.8906H0.96351C0.106652 10.8906 -0.322296 9.90865 0.283838 9.33471L9.57818 0.533319Z" fill="#00FFA3"/>
<path d="M49.3594 17.2209C48.9988 16.8593 48.5098 16.6562 48 16.6562H0.96351C0.106652 16.6562 -0.322296 17.6959 0.283838 18.3037L9.57818 27.6228C9.93881 27.9843 10.4277 28.1875 10.9375 28.1875H57.9741C58.8308 28.1875 59.2598 27.1478 58.6536 26.54L49.3594 17.2209Z" fill="#00FFA3"/>
<path d="M83.1907 24.912H92.5288C93.8405 24.912 94.9038 25.9645 94.9038 27.2627C94.9038 28.561 93.8405 29.6134 92.5288 29.6134H81.2655C81.0896 29.6134 80.9196 29.6756 80.786 29.7887L77.3852 32.6683C76.8646 33.1091 77.1796 33.9531 77.8647 33.9531H91.9647C91.9704 33.9531 91.9752 33.9485 91.9752 33.9427C91.9752 33.9367 91.9804 33.9319 91.9865 33.9323C92.164 33.9461 92.3433 33.9531 92.5242 33.9531C96.2645 33.9531 99.2966 30.9577 99.2966 27.2627C99.2966 23.7538 96.5624 20.876 93.0839 20.5948C93.0781 20.5944 93.0734 20.5895 93.0734 20.5836C93.0734 20.5774 93.0683 20.5724 93.062 20.5724H83.002C81.6903 20.5724 80.627 19.5199 80.627 18.2216C80.627 16.9234 81.6903 15.871 83.002 15.871H94.2496C94.4349 15.871 94.6133 15.802 94.7494 15.6779L97.9074 12.7981C98.4014 12.3476 98.0793 11.5312 97.4076 11.5312H83.1907C83.19 11.5312 83.1894 11.5318 83.1894 11.5325C83.1894 11.5331 83.1889 11.5337 83.1882 11.5336C83.1278 11.532 83.0672 11.5312 83.0064 11.5312C79.2661 11.5312 76.2341 14.5267 76.2341 18.2216C76.2341 21.9167 79.2661 24.912 83.0064 24.912C83.0672 24.912 83.1278 24.9112 83.1882 24.9097C83.1889 24.9097 83.1894 24.9102 83.1894 24.9109C83.1894 24.9115 83.19 24.912 83.1907 24.912Z" fill="black"/>
<path d="M137.184 11.5312C136.78 11.5312 136.453 11.8581 136.453 12.2613V33.2231C136.453 33.6263 136.78 33.9531 137.184 33.9531H154.103C154.305 33.9531 154.498 33.8696 154.637 33.7224L156.754 31.4678C157.191 31.0015 156.861 30.2384 156.221 30.2384H141.449C141.044 30.2384 140.717 29.9115 140.717 29.5084V12.2613C140.717 11.8581 140.39 11.5312 139.986 11.5312H137.184Z" fill="black"/>
<path fill-rule="evenodd" clip-rule="evenodd" d="M110.295 11.5312C110.294 11.5312 110.292 11.5321 110.292 11.5333C110.292 11.5343 110.292 11.5351 110.291 11.5353C108.156 11.6283 106.44 13.356 106.348 15.5074C106.348 15.5085 106.347 15.5093 106.346 15.5093C106.346 15.5093 106.345 15.5097 106.345 15.51C106.345 15.5103 106.344 15.5108 106.344 15.5113V29.6115C106.344 29.6126 106.345 29.6134 106.346 29.6134C106.347 29.6134 106.348 29.6143 106.348 29.6154C106.346 29.6747 106.344 29.7343 106.344 29.7942C106.344 32.0298 108.096 33.8536 110.291 33.9491C110.292 33.9492 110.292 33.95 110.292 33.9511L110.294 33.952V33.9527C110.294 33.9529 110.295 33.9531 110.295 33.9531H125.456C125.457 33.9531 125.458 33.9522 125.458 33.9511V33.95L125.459 33.9493L125.46 33.9491C127.656 33.8536 129.406 32.0298 129.406 29.7942C129.406 29.7343 129.405 29.6747 129.402 29.6154C129.402 29.6143 129.403 29.6134 129.404 29.6134C129.405 29.6134 129.406 29.6126 129.406 29.6115V15.5113C129.406 15.5102 129.405 15.5093 129.404 15.5093C129.403 15.5093 129.402 15.5085 129.402 15.5074C129.31 13.356 127.595 11.6283 125.46 11.5353C125.459 11.5351 125.458 11.5343 125.458 11.5333C125.458 11.5321 125.457 11.5312 125.456 11.5312H110.295ZM113.121 15.5093L113.12 15.5099V15.5105C113.12 15.5112 113.119 15.5118 113.119 15.5118C111.784 15.5703 110.712 16.6571 110.654 18.0105C110.654 18.0111 110.654 18.0117 110.653 18.0117C110.652 18.0117 110.652 18.0122 110.652 18.0129V26.8824C110.652 26.883 110.652 26.8836 110.653 26.8836C110.653 26.8836 110.654 26.8841 110.654 26.8848C110.653 26.9221 110.652 26.9596 110.652 26.9973C110.652 28.4036 111.747 29.5507 113.119 29.6109C113.119 29.6109 113.12 29.6115 113.12 29.6121V29.6128V29.6132L113.121 29.6134H122.629L122.63 29.6132V29.6128L122.632 29.6121C122.632 29.6115 122.632 29.6109 122.633 29.6109C124.005 29.5507 125.099 28.4036 125.099 26.9973C125.099 26.9596 125.098 26.9221 125.096 26.8848V26.8845L125.097 26.8841V26.8836C125.098 26.8836 125.099 26.883 125.099 26.8824V18.0129C125.099 18.0122 125.098 18.0117 125.097 18.0117C125.097 18.0117 125.096 18.0111 125.096 18.0105C125.038 16.6571 123.967 15.5703 122.633 15.5118C122.632 15.5118 122.632 15.5112 122.632 15.5105L122.63 15.51V15.5095L122.629 15.5093H113.121Z" fill="black"/>
<path fill-rule="evenodd" clip-rule="evenodd" d="M181.452 33.2231C181.452 33.6263 181.778 33.9531 182.18 33.9531H185.054C185.455 33.9531 185.781 33.6263 185.781 33.2231V15.8729C185.781 15.8718 185.78 15.871 185.779 15.871L185.778 15.8708V15.8705C185.778 15.8701 185.777 15.8696 185.777 15.869C185.78 15.8097 185.781 15.7501 185.781 15.6901C185.781 13.4545 184.022 11.6308 181.815 11.5353C181.814 11.5351 181.814 11.5343 181.814 11.5333C181.814 11.5321 181.813 11.5312 181.812 11.5312H167.048C167.047 11.5312 167.046 11.5321 167.046 11.5331C167.046 11.5343 167.045 11.5351 167.044 11.535C166.984 11.5326 166.925 11.5312 166.865 11.5312C164.575 11.5312 162.719 13.3932 162.719 15.6901C162.719 15.7501 162.72 15.8097 162.722 15.869C162.722 15.8701 162.721 15.871 162.72 15.871C162.718 15.871 162.719 15.8718 162.719 15.8729V33.2231C162.719 33.6263 163.043 33.9531 163.445 33.9531H166.32C166.72 33.9531 167.046 33.6263 167.046 33.2231V26.0037C167.046 25.6005 167.371 25.2737 167.772 25.2737H180.726C181.128 25.2737 181.452 25.6005 181.452 26.0037V33.2231ZM167.046 21.2888V17.6791C167.046 16.2811 168.176 15.1477 169.57 15.1477H178.929C180.323 15.1477 181.452 16.2811 181.452 17.6791V21.2888C181.452 21.692 181.128 22.0189 180.726 22.0189H167.772C167.371 22.0189 167.046 21.692 167.046 21.2888Z" fill="black"/>
<path fill-rule="evenodd" clip-rule="evenodd" d="M242.402 33.9531C242.002 33.9531 241.676 33.6263 241.676 33.2231V26.0037C241.676 25.6005 241.351 25.2737 240.95 25.2737H227.988C227.587 25.2737 227.261 25.6005 227.261 26.0037V33.2231C227.261 33.6263 226.937 33.9531 226.536 33.9531H223.664C223.263 33.9531 222.938 33.6263 222.938 33.2231V15.8729V15.8723V15.8718C222.939 15.8712 222.939 15.871 222.94 15.871C222.941 15.871 222.942 15.8701 222.941 15.869C222.939 15.8097 222.938 15.7501 222.938 15.6901C222.938 13.3932 224.793 11.5312 227.081 11.5312C227.141 11.5312 227.2 11.5326 227.26 11.535C227.261 11.5351 227.261 11.5343 227.261 11.5331C227.261 11.5321 227.263 11.5312 227.264 11.5312H242.035C242.036 11.5312 242.036 11.5321 242.036 11.5333C242.036 11.5343 242.037 11.5351 242.038 11.5353C244.242 11.6308 246 13.4545 246 15.6901C246 15.7501 245.999 15.8097 245.997 15.869C245.997 15.8701 245.998 15.871 245.999 15.871C245.999 15.871 246 15.8712 246 15.8716C246 15.8719 246 15.8723 246 15.8729V33.2231C246 33.6263 245.676 33.9531 245.275 33.9531H242.402ZM227.261 17.6791V21.2888C227.261 21.692 227.587 22.0189 227.988 22.0189H240.95C241.351 22.0189 241.676 21.692 241.676 21.2888V17.6791C241.676 16.2811 240.546 15.1477 239.153 15.1477H229.784C228.391 15.1477 227.261 16.2811 227.261 17.6791Z" fill="black"/>
<path d="M196.839 11.5312C197.051 11.5312 197.253 11.6249 197.391 11.7876L210.283 27.0184C210.721 27.5348 211.562 27.2234 211.562 26.5447V12.2613C211.562 11.8581 211.888 11.5312 212.29 11.5312H215.163C215.565 11.5312 215.891 11.8581 215.891 12.2613V33.2231C215.891 33.6263 215.565 33.9531 215.163 33.9531H211.589C211.575 33.9531 211.562 33.9409 211.562 33.9259C211.562 33.9192 211.56 33.9129 211.556 33.9078L198.448 18.7834C198.006 18.2754 197.175 18.5891 197.175 19.2635V33.2231C197.175 33.6263 196.849 33.9531 196.447 33.9531H193.555C193.154 33.9531 192.828 33.6263 192.828 33.2231V12.2613C192.828 11.8581 193.154 11.5312 193.555 11.5312H196.839Z" fill="black"/>
</svg>
