<svg width="164" height="128" viewBox="0 0 164 128" fill="none" xmlns="http://www.w3.org/2000/svg">
<path d="M26.943 97.7127C27.9424 96.7142 29.2974 96.1533 30.71 96.1533H161.065C163.44 96.1533 164.628 99.0248 162.948 100.703L137.191 126.44C136.191 127.439 134.836 128 133.423 128H3.06867C0.694008 128 -0.49476 125.129 1.18505 123.45L26.943 97.7127Z" fill="#ADADAD"/>
<path d="M26.943 1.55956C27.9424 0.560939 29.2974 0 30.71 0H161.065C163.44 0 164.628 2.87149 162.948 4.54996L137.191 30.2875C136.191 31.286 134.836 31.8469 133.423 31.8469H3.06867C0.694008 31.8469 -0.49476 28.9753 1.18505 27.297L26.943 1.55956Z" fill="#ADADAD"/>
<path d="M137.191 49.3299C136.191 48.3314 134.836 47.7705 133.423 47.7705H3.06867C0.694008 47.7705 -0.49476 50.6417 1.18505 52.3204L26.943 78.0577C27.9424 79.0562 29.2974 79.6174 30.71 79.6174H161.065C163.44 79.6174 164.628 76.7459 162.948 75.0672L137.191 49.3299Z" fill="#ADADAD"/>
</svg>
