<svg width="182" height="34" viewBox="0 0 182 34" fill="none" xmlns="http://www.w3.org/2000/svg">
<path d="M7.08629 25.5374C7.3531 25.2699 7.71483 25.1196 8.09194 25.1196H42.8914C43.5253 25.1196 43.8426 25.8889 43.3942 26.3385L36.5179 33.2331C36.2511 33.5006 35.8894 33.6509 35.5122 33.6509H0.712841C0.0789052 33.6509 -0.238447 32.8816 0.209994 32.432L7.08629 25.5374Z" fill="#00FFA3"/>
<path d="M7.08629 0.394569C7.3531 0.141918 7.71483 0 8.09194 0H42.8914C43.5253 0 43.8426 0.726491 43.3942 1.15114L36.5179 7.66276C36.2511 7.91538 35.8894 8.05729 35.5122 8.05729H0.712841C0.0789052 8.05729 -0.238447 7.33079 0.209994 6.90617L7.08629 0.394569Z" fill="#00FFA3"/>
<path d="M36.5179 12.7405C36.2511 12.473 35.8894 12.3228 35.5122 12.3228H0.712841C0.0789052 12.3228 -0.238447 13.0919 0.209994 13.5416L7.08629 20.4362C7.3531 20.7037 7.71483 20.854 8.09194 20.854H42.8914C43.5253 20.854 43.8426 20.0848 43.3942 19.6351L36.5179 12.7405Z" fill="#00FFA3"/>
<path d="M61.5476 18.4308H68.4563C69.4268 18.4308 70.2135 19.2095 70.2135 20.17C70.2135 21.1305 69.4268 21.9091 68.4563 21.9091H60.1233C59.9932 21.9091 59.8674 21.9551 59.7686 22.0388L57.2526 24.1693C56.8674 24.4954 57.1004 25.1198 57.6073 25.1198H68.039C68.0433 25.1198 68.0468 25.1163 68.0468 25.1121C68.0468 25.1076 68.0506 25.1041 68.0552 25.1044C68.1864 25.1146 68.3191 25.1198 68.453 25.1198C71.2202 25.1198 73.4634 22.9036 73.4634 20.17C73.4634 17.574 71.4405 15.4448 68.8671 15.2368C68.8627 15.2365 68.8593 15.2329 68.8593 15.2285C68.8593 15.2239 68.8555 15.2202 68.8508 15.2202H61.408C60.4376 15.2202 59.6509 14.4415 59.6509 13.481C59.6509 12.5206 60.4376 11.742 61.408 11.742H69.7295C69.8666 11.742 69.9985 11.6909 70.0993 11.5991L72.4356 9.46853C72.8011 9.13525 72.5628 8.53125 72.0659 8.53125H61.5476C61.5471 8.53125 61.5467 8.53166 61.5467 8.53216C61.5467 8.53265 61.5463 8.53306 61.5458 8.53298C61.5011 8.53183 61.4563 8.53125 61.4113 8.53125C58.6441 8.53125 56.4009 10.7474 56.4009 13.481C56.4009 16.2148 58.6441 18.4308 61.4113 18.4308C61.4563 18.4308 61.5011 18.4303 61.5458 18.4291C61.5463 18.4291 61.5467 18.4295 61.5467 18.43C61.5467 18.4304 61.5471 18.4308 61.5476 18.4308Z" fill="black"/>
<path d="M101.494 8.53125C101.195 8.53125 100.953 8.77308 100.953 9.07138V24.5797C100.953 24.878 101.195 25.1198 101.494 25.1198H114.011C114.16 25.1198 114.303 25.058 114.406 24.9491L115.973 23.281C116.296 22.9361 116.051 22.3715 115.578 22.3715H104.649C104.35 22.3715 104.108 22.1297 104.108 21.8315V9.07138C104.108 8.77308 103.866 8.53125 103.567 8.53125H101.494Z" fill="black"/>
<path fill-rule="evenodd" clip-rule="evenodd" d="M81.6001 8.53125C81.5993 8.53125 81.5984 8.53191 81.5984 8.53273C81.5984 8.53347 81.5984 8.53413 81.5976 8.53421C80.0175 8.60303 78.7484 9.88124 78.6805 11.473C78.6805 11.4738 78.6796 11.4744 78.6788 11.4744C78.6788 11.4744 78.678 11.4746 78.678 11.4749C78.678 11.4751 78.6772 11.4754 78.6772 11.4759V21.9077C78.6772 21.9085 78.678 21.9091 78.6788 21.9091C78.6796 21.9091 78.6805 21.9097 78.6805 21.9106C78.6788 21.9544 78.6772 21.9985 78.6772 22.0428C78.6772 23.6969 79.9733 25.0461 81.5976 25.1168C81.5984 25.1169 81.5984 25.1175 81.5984 25.1183L81.5993 25.119V25.1195C81.5993 25.1196 81.6001 25.1198 81.6001 25.1198H92.8168C92.8176 25.1198 92.8184 25.1191 92.8184 25.1183V25.1175L92.8192 25.117L92.8201 25.1168C94.4444 25.0461 95.7397 23.6969 95.7397 22.0428C95.7397 21.9985 95.7389 21.9544 95.7364 21.9106C95.7364 21.9097 95.7372 21.9091 95.738 21.9091C95.7389 21.9091 95.7397 21.9085 95.7397 21.9077V11.4759C95.7397 11.475 95.7389 11.4744 95.738 11.4744C95.7372 11.4744 95.7364 11.4738 95.7364 11.473C95.6685 9.88124 94.3994 8.60303 92.8201 8.53421C92.8192 8.53413 92.8184 8.53347 92.8184 8.53273C92.8184 8.53191 92.8176 8.53125 92.8168 8.53125H81.6001ZM83.6911 11.4744L83.6903 11.4748V11.4753C83.6903 11.4758 83.6895 11.4762 83.6895 11.4762C82.7021 11.5195 81.9087 12.3236 81.8662 13.3248C81.8662 13.3253 81.8662 13.3257 81.8654 13.3257C81.8645 13.3257 81.8645 13.3261 81.8645 13.3266V19.8886C81.8645 19.8891 81.8645 19.8895 81.8654 19.8895C81.8654 19.8895 81.8662 19.8899 81.8662 19.8904C81.8653 19.918 81.8645 19.9457 81.8645 19.9736C81.8645 21.014 82.6743 21.8627 83.6895 21.9073C83.6895 21.9073 83.6903 21.9077 83.6903 21.9082V21.9087V21.909L83.6911 21.9091H90.7257L90.7266 21.909V21.9087L90.7274 21.9082C90.7274 21.9077 90.7274 21.9073 90.7282 21.9073C91.7434 21.8627 92.5532 21.014 92.5532 19.9736C92.5532 19.9457 92.5523 19.918 92.5507 19.8904V19.8901L92.5515 19.8899V19.8895C92.5523 19.8895 92.5532 19.8891 92.5532 19.8886V13.3266C92.5532 13.3261 92.5523 13.3257 92.5515 13.3257C92.5515 13.3257 92.5507 13.3253 92.5507 13.3248C92.5081 12.3236 91.7156 11.5195 90.7282 11.4762C90.7274 11.4762 90.7274 11.4758 90.7274 11.4753L90.7266 11.4749V11.4745L90.7257 11.4744H83.6911Z" fill="black"/>
<path fill-rule="evenodd" clip-rule="evenodd" d="M134.245 24.5797C134.245 24.878 134.486 25.1198 134.784 25.1198H136.91C137.207 25.1198 137.448 24.878 137.448 24.5797V11.7434C137.448 11.7425 137.447 11.742 137.446 11.742L137.445 11.7418V11.7416C137.445 11.7413 137.444 11.7409 137.444 11.7405C137.447 11.6966 137.448 11.6525 137.448 11.6081C137.448 9.95417 136.146 8.60492 134.514 8.53421C134.513 8.53413 134.513 8.53347 134.513 8.53273C134.513 8.53191 134.512 8.53125 134.511 8.53125H123.589C123.588 8.53125 123.587 8.53191 123.587 8.53265C123.587 8.53347 123.586 8.53413 123.585 8.53405C123.541 8.53224 123.497 8.53125 123.453 8.53125C121.759 8.53125 120.385 9.90881 120.385 11.6081C120.385 11.6525 120.386 11.6966 120.388 11.7405C120.388 11.7413 120.387 11.742 120.386 11.742C120.385 11.742 120.385 11.7425 120.385 11.7434V24.5797C120.385 24.878 120.625 25.1198 120.923 25.1198H123.05C123.346 25.1198 123.587 24.878 123.587 24.5797V19.2385C123.587 18.9402 123.828 18.6984 124.124 18.6984H133.708C134.005 18.6984 134.245 18.9402 134.245 19.2385V24.5797ZM123.587 15.7503V13.0797C123.587 12.0454 124.423 11.2069 125.455 11.2069H132.378C133.41 11.2069 134.245 12.0454 134.245 13.0797V15.7503C134.245 16.0486 134.005 16.2904 133.708 16.2904H124.124C123.828 16.2904 123.587 16.0486 123.587 15.7503Z" fill="black"/>
<path fill-rule="evenodd" clip-rule="evenodd" d="M179.338 25.1198C179.042 25.1198 178.801 24.878 178.801 24.5797V19.2385C178.801 18.9402 178.56 18.6984 178.263 18.6984H168.674C168.377 18.6984 168.136 18.9402 168.136 19.2385V24.5797C168.136 24.878 167.896 25.1198 167.6 25.1198H165.475C165.178 25.1198 164.938 24.878 164.938 24.5797V11.7434V11.743V11.7425C164.938 11.7421 164.938 11.742 164.939 11.742C164.94 11.742 164.941 11.7413 164.94 11.7405C164.938 11.6966 164.938 11.6525 164.938 11.6081C164.938 9.90881 166.31 8.53125 168.003 8.53125C168.048 8.53125 168.091 8.53224 168.136 8.53405C168.136 8.53413 168.136 8.53347 168.136 8.53265C168.136 8.53191 168.137 8.53125 168.138 8.53125H179.067C179.067 8.53125 179.067 8.53191 179.067 8.53273C179.067 8.53347 179.068 8.53413 179.069 8.53421C180.7 8.60492 182 9.95417 182 11.6081C182 11.6525 181.999 11.6966 181.998 11.7405C181.998 11.7413 181.998 11.742 181.999 11.742C181.999 11.742 182 11.7421 182 11.7424C182 11.7426 182 11.743 182 11.7434V24.5797C182 24.878 181.76 25.1198 181.463 25.1198H179.338ZM168.136 13.0797V15.7503C168.136 16.0486 168.377 16.2904 168.674 16.2904H178.263C178.56 16.2904 178.801 16.0486 178.801 15.7503V13.0797C178.801 12.0454 177.965 11.2069 176.934 11.2069H170.003C168.972 11.2069 168.136 12.0454 168.136 13.0797Z" fill="black"/>
<path d="M145.629 8.53125C145.786 8.53125 145.935 8.60056 146.038 8.7209L155.575 19.9892C155.9 20.3712 156.522 20.1409 156.522 19.6388V9.07138C156.522 8.77308 156.763 8.53125 157.06 8.53125H159.186C159.483 8.53125 159.724 8.77308 159.724 9.07138V24.5797C159.724 24.878 159.483 25.1198 159.186 25.1198H156.542C156.531 25.1198 156.522 25.1107 156.522 25.0996C156.522 25.0947 156.52 25.09 156.517 25.0863L146.819 13.8966C146.493 13.5208 145.877 13.7529 145.877 14.2519V24.5797C145.877 24.878 145.636 25.1198 145.339 25.1198H143.199C142.902 25.1198 142.662 24.878 142.662 24.5797V9.07138C142.662 8.77308 142.902 8.53125 143.199 8.53125H145.629Z" fill="black"/>
</svg>
