<svg width="218" height="152" viewBox="0 0 218 152" fill="none" xmlns="http://www.w3.org/2000/svg">
<g filter="url(#filter0_d)">
<path d="M58.8956 20.3198C86.5674 -6.77326 131.432 -6.77326 159.104 20.3198L162.435 23.5805C163.818 24.9351 163.818 27.1315 162.435 28.4861L151.042 39.6403C150.35 40.3176 149.229 40.3176 148.537 39.6403L143.954 35.1532C124.649 16.2524 93.3505 16.2524 74.0459 35.1532L69.1379 39.9585C68.4461 40.6358 67.3245 40.6358 66.6327 39.9585L55.2402 28.8043C53.8566 27.4497 53.8566 25.2533 55.2402 23.8987L58.8956 20.3198ZM182.665 43.3878L192.804 53.3151C194.188 54.6697 194.188 56.866 192.804 58.2207L147.085 102.984C145.702 104.339 143.459 104.339 142.075 102.984C142.075 102.984 142.075 102.984 142.075 102.984L109.626 71.2142C109.281 70.8755 108.72 70.8755 108.374 71.2142H108.374L75.926 102.984C74.5424 104.339 72.2992 104.339 70.9156 102.984C70.9156 102.984 70.9156 102.984 70.9156 102.984L25.1954 58.2201C23.8118 56.8655 23.8118 54.6691 25.1954 53.3145L35.3347 43.3872C36.7183 42.0326 38.9616 42.0326 40.3452 43.3872L72.7941 75.1575C73.14 75.4962 73.7008 75.4962 74.0467 75.1575C74.0467 75.1575 74.0467 75.1575 74.0467 75.1575L106.494 43.3872C107.878 42.0325 110.121 42.0325 111.505 43.3871C111.505 43.3871 111.505 43.3872 111.505 43.3872L143.953 75.1575C144.299 75.4961 144.86 75.4961 145.206 75.1575L177.654 43.3878C179.038 42.0331 181.281 42.0331 182.665 43.3878Z" fill="#3B99FC"/>
</g>
<defs>
<filter id="filter0_d" x="0.157715" y="0" width="217.684" height="152" filterUnits="userSpaceOnUse" color-interpolation-filters="sRGB">
<feFlood flood-opacity="0" result="BackgroundImageFix"/>
<feColorMatrix in="SourceAlpha" type="matrix" values="0 0 0 0 0 0 0 0 0 0 0 0 0 0 0 0 0 0 127 0"/>
<feOffset dy="24"/>
<feGaussianBlur stdDeviation="12"/>
<feColorMatrix type="matrix" values="0 0 0 0 0 0 0 0 0 0 0 0 0 0 0 0 0 0 0.15 0"/>
<feBlend mode="normal" in2="BackgroundImageFix" result="effect1_dropShadow"/>
<feBlend mode="normal" in="SourceGraphic" in2="effect1_dropShadow" result="shape"/>
</filter>
</defs>
</svg>
