<svg width="170" height="104" viewBox="0 0 170 104" fill="none" xmlns="http://www.w3.org/2000/svg">
<path d="M34.9832 20.3539C62.5858 -6.67135 107.338 -6.67135 134.941 20.3539L138.263 23.6064C139.643 24.9577 139.643 27.1485 138.263 28.4998L126.899 39.626C126.209 40.3017 125.09 40.3017 124.4 39.626L119.829 35.1502C100.572 16.2967 69.3519 16.2967 50.0956 35.1502L45.1999 39.9435C44.5098 40.6191 43.391 40.6191 42.701 39.9435L31.337 28.8172C29.9569 27.4659 29.9569 25.2751 31.337 23.9238L34.9832 20.3539ZM158.443 43.3642L168.557 53.2666C169.937 54.6179 169.937 56.8087 168.557 58.16L122.952 102.811C121.572 104.163 119.335 104.163 117.954 102.811C117.954 102.811 117.954 102.811 117.954 102.811L85.5871 71.1209C85.2421 70.7831 84.6827 70.7831 84.3376 71.1209C84.3376 71.1209 84.3376 71.1209 84.3376 71.1209L51.971 102.811C50.5909 104.163 48.3533 104.163 46.9731 102.811C46.9731 102.811 46.9731 102.811 46.9731 102.811L1.36737 58.1594C-0.0127569 56.8081 -0.0127569 54.6173 1.36737 53.266L11.4813 43.3636C12.8615 42.0124 15.0991 42.0124 16.4792 43.3636L48.847 75.0544C49.192 75.3922 49.7514 75.3922 50.0964 75.0544C50.0965 75.0544 50.0965 75.0544 50.0965 75.0544L82.4626 43.3636C83.8427 42.0123 86.0803 42.0123 87.4605 43.3635C87.4605 43.3635 87.4605 43.3635 87.4605 43.3636L119.828 75.0544C120.173 75.3922 120.733 75.3922 121.078 75.0544L153.445 43.3642C154.825 42.0129 157.063 42.0129 158.443 43.3642Z" fill="#ADADAD"/>
</svg>
